<svg width="96" height="96" viewBox="0 0 96 96" fill="none" xmlns="http://www.w3.org/2000/svg">
<g clip-path="url(#clip0_1821_220478)">
<g filter="url(#filter0_i_1821_220478)">
<path opacity="0.6" d="M41.1185 64.5481V84.0333L20.6762 95.8269V76.3418L41.1185 64.5481Z" fill="url(#paint0_linear_1821_220478)" stroke="white" stroke-width="0.2"/>
<path opacity="0.6" d="M0.1 64.5484L20.4762 76.3417V95.8267L0.1 84.0334V64.5484Z" fill="url(#paint1_linear_1821_220478)" stroke="white" stroke-width="0.2"/>
<path d="M38.2735 53.2598C38.2735 63.0338 30.3502 70.9572 20.5762 70.9572C10.8022 70.9572 2.87878 63.0338 2.87878 53.2598C2.87878 43.4858 10.8022 35.5624 20.5762 35.5624C30.3502 35.5624 38.2735 43.4858 38.2735 53.2598Z" stroke="white" stroke-width="0.2"/>
<g filter="url(#filter1_d_1821_220478)">
<path d="M20.5762 68.94C29.2361 68.94 36.2564 61.9198 36.2564 53.2598C36.2564 44.5999 29.2361 37.5796 20.5762 37.5796C11.9162 37.5796 4.89594 44.5999 4.89594 53.2598C4.89594 61.9198 11.9162 68.94 20.5762 68.94Z" fill="url(#paint2_radial_1821_220478)"/>
<path d="M36.1564 53.2598C36.1564 61.8645 29.1809 68.84 20.5762 68.84C11.9714 68.84 4.99594 61.8645 4.99594 53.2598C4.99594 44.6551 11.9714 37.6796 20.5762 37.6796C29.1809 37.6796 36.1564 44.6551 36.1564 53.2598Z" stroke="white" stroke-width="0.2"/>
</g>
<path opacity="0.1" d="M7.16604 45.4362L7.16627 45.4358C11.3688 38.0156 20.3637 36.0385 27.0688 39.1187C31.2497 43.1825 31.7838 50.663 28.0981 57.1794C23.7502 64.5569 15.6086 67.7531 9.72028 64.3605C5.4524 60.2168 3.0272 52.6627 7.16604 45.4362Z" fill="white" stroke="white" stroke-width="0.2"/>
<path opacity="0.1" d="M20.6163 40.15C24.3799 42.323 25.2448 47.9436 22.4842 52.7251C19.7235 57.5065 14.4234 59.5677 10.6597 57.3947C6.89609 55.2217 6.03117 49.601 8.79183 44.8196C11.5525 40.0381 16.8526 37.977 20.6163 40.15Z" fill="white" stroke="white" stroke-width="0.2"/>
<path opacity="0.1" d="M10.87 43.9828L10.871 43.9812C12.3762 41.3634 15.3637 40.2188 17.4155 41.437C19.4688 42.6562 19.944 45.6962 18.4382 48.3809C16.9329 50.9983 13.9456 52.1428 11.8939 50.9246C9.83889 49.7044 9.30115 46.5976 10.87 43.9828Z" fill="white" stroke="white" stroke-width="0.2"/>
<g opacity="0.5">
<path opacity="0.5" d="M41.1185 41.4573V65.2433L20.6761 76.9714V53.1855L41.1185 41.4573Z" fill="url(#paint3_linear_1821_220478)" stroke="white" stroke-width="0.2"/>
<path opacity="0.5" d="M0.1 41.4576L20.4762 53.1854V76.9711L0.1 65.2434V41.4576Z" fill="url(#paint4_linear_1821_220478)" stroke="white" stroke-width="0.2"/>
<path d="M0.200047 41.2843L20.5762 29.491L41.0179 41.2843L20.5762 53.0121L0.200047 41.2843Z" fill="url(#paint5_linear_1821_220478)" stroke="white" stroke-width="0.2"/>
</g>
<path opacity="0.8" d="M41.1185 20.1541V41.161L20.6761 52.9546V31.9477L41.1185 20.1541Z" fill="url(#paint6_linear_1821_220478)" stroke="white" stroke-width="0.2"/>
<path opacity="0.8" d="M0.1 20.1544L20.4762 31.9476V52.9548L0.1 41.2271V20.1544Z" fill="url(#paint7_linear_1821_220478)" stroke="white" stroke-width="0.2"/>
<path opacity="0.8" d="M0.19963 19.9808L20.5762 8.18727L41.0184 19.9808L20.5762 31.7743L0.19963 19.9808Z" fill="url(#paint8_linear_1821_220478)" stroke="white" stroke-width="0.2"/>
<path opacity="0.5" d="M41.1185 12.0823V27.7301L20.6761 39.5238V23.876L41.1185 12.0823Z" fill="url(#paint9_linear_1821_220478)" stroke="white" stroke-width="0.2"/>
<path opacity="0.5" d="M0.1 12.0826L20.4762 23.8759V39.5235L0.1 27.7302V12.0826Z" fill="url(#paint10_linear_1821_220478)" stroke="white" stroke-width="0.2"/>
<path opacity="0.6" d="M0.19963 11.909L20.5762 0.115495L41.0184 11.909L20.5762 23.7026L0.19963 11.909Z" fill="url(#paint11_linear_1821_220478)" stroke="white" stroke-width="0.2"/>
</g>
</g>
<defs>
<filter id="filter0_i_1821_220478" x="0" y="0" width="41.2185" height="100" filterUnits="userSpaceOnUse" color-interpolation-filters="sRGB">
<feFlood flood-opacity="0" result="BackgroundImageFix"/>
<feBlend mode="normal" in="SourceGraphic" in2="BackgroundImageFix" result="shape"/>
<feColorMatrix in="SourceAlpha" type="matrix" values="0 0 0 0 0 0 0 0 0 0 0 0 0 0 0 0 0 0 127 0" result="hardAlpha"/>
<feOffset dy="4"/>
<feGaussianBlur stdDeviation="2"/>
<feComposite in2="hardAlpha" operator="arithmetic" k2="-1" k3="1"/>
<feColorMatrix type="matrix" values="0 0 0 0 0.608223 0 0 0 0 0.544444 0 0 0 0 1 0 0 0 0.2 0"/>
<feBlend mode="normal" in2="shape" result="effect1_innerShadow_1821_220478"/>
</filter>
<filter id="filter1_d_1821_220478" x="-15.1041" y="17.5796" width="71.3604" height="71.3604" filterUnits="userSpaceOnUse" color-interpolation-filters="sRGB">
<feFlood flood-opacity="0" result="BackgroundImageFix"/>
<feColorMatrix in="SourceAlpha" type="matrix" values="0 0 0 0 0 0 0 0 0 0 0 0 0 0 0 0 0 0 127 0" result="hardAlpha"/>
<feOffset/>
<feGaussianBlur stdDeviation="10"/>
<feComposite in2="hardAlpha" operator="out"/>
<feColorMatrix type="matrix" values="0 0 0 0 0.23358 0 0 0 0 0.977778 0 0 0 0 0.486607 0 0 0 1 0"/>
<feBlend mode="normal" in2="BackgroundImageFix" result="effect1_dropShadow_1821_220478"/>
<feBlend mode="normal" in="SourceGraphic" in2="effect1_dropShadow_1821_220478" result="shape"/>
</filter>
<linearGradient id="paint0_linear_1821_220478" x1="22" y1="94.25" x2="40" y2="80.1875" gradientUnits="userSpaceOnUse">
<stop stop-color="#93A5CF"/>
<stop offset="1" stop-color="#E4EFE9"/>
</linearGradient>
<linearGradient id="paint1_linear_1821_220478" x1="1.5" y1="81.5" x2="18.25" y2="91.25" gradientUnits="userSpaceOnUse">
<stop stop-color="#93A5CF"/>
<stop offset="1" stop-color="#E4EFE9"/>
</linearGradient>
<radialGradient id="paint2_radial_1821_220478" cx="0" cy="0" r="1" gradientUnits="userSpaceOnUse" gradientTransform="translate(20.5762 53.2598) scale(15.6802)">
<stop stop-color="#13547A"/>
<stop offset="1" stop-color="#80D0C7"/>
</radialGradient>
<linearGradient id="paint3_linear_1821_220478" x1="41.2185" y1="43.75" x2="39.0434" y2="73.3906" gradientUnits="userSpaceOnUse">
<stop offset="0.2048" stop-color="#FFFF96"/>
<stop offset="0.2796" stop-color="#DFEFA4"/>
<stop offset="0.383" stop-color="#B9DCB4"/>
<stop offset="0.491" stop-color="#99CCC1"/>
<stop offset="0.6028" stop-color="#81C0CC"/>
<stop offset="0.7203" stop-color="#70B7D3"/>
<stop offset="0.8471" stop-color="#65B2D8"/>
<stop offset="1" stop-color="#62B0D9"/>
</linearGradient>
<linearGradient id="paint4_linear_1821_220478" x1="20.5762" y1="43.75" x2="18.3942" y2="73.3896" gradientUnits="userSpaceOnUse">
<stop offset="0.2048" stop-color="#FFFF96"/>
<stop offset="0.2796" stop-color="#DFEFA4"/>
<stop offset="0.383" stop-color="#B9DCB4"/>
<stop offset="0.491" stop-color="#99CCC1"/>
<stop offset="0.6028" stop-color="#81C0CC"/>
<stop offset="0.7203" stop-color="#70B7D3"/>
<stop offset="0.8471" stop-color="#65B2D8"/>
<stop offset="1" stop-color="#62B0D9"/>
</linearGradient>
<linearGradient id="paint5_linear_1821_220478" x1="2.84315" y1="51.813" x2="13.7344" y2="29.1908" gradientUnits="userSpaceOnUse">
<stop stop-color="#93A5CF"/>
<stop offset="1" stop-color="#E4EFE9"/>
</linearGradient>
<linearGradient id="paint6_linear_1821_220478" x1="34.5" y1="40.8904" x2="25.3328" y2="34.5337" gradientUnits="userSpaceOnUse">
<stop stop-color="#93A5CF"/>
<stop offset="1" stop-color="#E4EFE9"/>
</linearGradient>
<linearGradient id="paint7_linear_1821_220478" x1="-1.2478e-07" y1="33" x2="22.1975" y2="39.1048" gradientUnits="userSpaceOnUse">
<stop stop-color="#93A5CF"/>
<stop offset="1" stop-color="#E4EFE9"/>
</linearGradient>
<linearGradient id="paint8_linear_1821_220478" x1="2.84315" y1="30.5718" x2="13.7837" y2="7.91037" gradientUnits="userSpaceOnUse">
<stop stop-color="#93A5CF"/>
<stop offset="1" stop-color="#E4EFE9"/>
</linearGradient>
<linearGradient id="paint9_linear_1821_220478" x1="20.5761" y1="25.803" x2="41.2185" y2="25.803" gradientUnits="userSpaceOnUse">
<stop stop-color="#E6E9F0"/>
<stop offset="1" stop-color="#EEF1F5"/>
</linearGradient>
<linearGradient id="paint10_linear_1821_220478" x1="0" y1="25.803" x2="20.5762" y2="25.803" gradientUnits="userSpaceOnUse">
<stop stop-color="#E6E9F0"/>
<stop offset="1" stop-color="#EEF1F5"/>
</linearGradient>
<linearGradient id="paint11_linear_1821_220478" x1="2.84315" y1="22.5" x2="13.7837" y2="-0.161408" gradientUnits="userSpaceOnUse">
<stop stop-color="#93A5CF"/>
<stop offset="1" stop-color="#E4EFE9"/>
</linearGradient>
<clipPath id="clip0_1821_220478">
<rect width="41.2185" height="96" fill="white"/>
</clipPath>
</defs>
</svg>
