<svg width="96" height="96" viewBox="0 0 96 96" fill="none" xmlns="http://www.w3.org/2000/svg">
<g clip-path="url(#clip0_1821_220479)">
<path d="M51.8468 81.4301H59.9957L59.9329 83.5034L59.9328 83.5034V83.5079C59.9328 86.8057 57.5566 89.854 53.6454 92.1034C49.739 94.35 44.3306 95.7798 38.3433 95.8471C32.3222 95.9143 26.8635 94.6021 22.907 92.4311C18.9462 90.2577 16.5205 87.243 16.4871 83.9122V83.9122V83.9113V83.9104V83.9094V83.9084V83.9073V83.9061V83.905V83.9037V83.9024V83.9011V83.8997V83.8982V83.8967V83.8952V83.8936V83.8919V83.8902V83.8884V83.8866V83.8848V83.8829V83.8809V83.8789V83.8769V83.8748V83.8726V83.8704V83.8682V83.8659V83.8636V83.8612V83.8587V83.8563V83.8537V83.8512V83.8485V83.8459V83.8432V83.8404V83.8376V83.8347V83.8319V83.8289V83.8259V83.8229V83.8198V83.8167V83.8136V83.8104V83.8071V83.8038V83.8005V83.7971V83.7937V83.7903V83.7868V83.7832V83.7796V83.776V83.7723V83.7686V83.7649V83.7611V83.7573V83.7534V83.7495V83.7455V83.7416V83.7375V83.7335V83.7294V83.7252V83.7211V83.7168V83.7126V83.7083V83.704V83.6996V83.6952V83.6907V83.6863V83.6818V83.6772V83.6726V83.668V83.6633V83.6587V83.6539V83.6492V83.6444V83.6395V83.6347V83.6298V83.6248V83.6199V83.6149V83.6099V83.6048V83.5997V83.5946V83.5894V83.5842V83.579V83.5737V83.5684V83.5631V83.5578V83.5524V83.547V83.5415V83.5361V83.5306V83.525V83.5195V83.5139V83.5083V83.5026V83.497V83.4913V83.4855V83.4798V83.474V83.4682V83.4623V83.4565V83.4506V83.4446V83.4387V83.4327V83.4267V83.4207V83.4147V83.4086V83.4025V83.3964V83.3902V83.384V83.3778V83.3716V83.3654V83.3591V83.3528V83.3465V83.3402V83.3338V83.3274V83.321V83.3146V83.3081V83.3017V83.2952V83.2887V83.2821V83.2756V83.269V83.2624V83.2558V83.2492V83.2425V83.2358V83.2292V83.2224V83.2157V83.209V83.2022V83.1954V83.1886V83.1818V83.175V83.1681V83.1612V83.1544V83.1474V83.1405V83.1336V83.1266V83.1197V83.1127V83.1057V83.0987V83.0917V83.0846V83.0776V83.0705V83.0634V83.0563V83.0492V83.0421V83.0349V83.0278V83.0206V83.0134V83.0062V82.999V82.9918V82.9846V82.9774V82.9701V82.9629V82.9556V82.9483V82.941V82.9337V82.9264V82.9191V82.9118V82.9045V82.8971V82.8898V82.8824V82.875V82.8677V82.8603V82.8529V82.8455V82.8381V82.8307V82.8232V82.8158V82.8084V82.8009V82.7935V82.786V82.7786V82.7711V82.7637V82.7562V82.7487V82.7412V82.7337V82.7263V82.7188V82.7113V82.7038V82.6963V82.6888V82.6813V82.6737V82.6662V82.6587V82.6512V82.6437V82.6362V82.6287V82.6211V82.6136V82.6061V82.5986V82.5911V82.5835V82.576V82.5685V82.561V82.5535V82.5459V82.5384V82.5309V82.5234V82.5159V82.5084V82.5009V82.4934V82.4859V82.4784V82.4709V82.4634V82.4559V82.4484V82.441V82.4335V82.426V82.4186V82.4111V82.4037V82.3962V82.3888V82.3814V82.3739V82.3665V82.3591V82.3517V82.3443V82.3369V82.3295V82.3221V82.3148V82.3074V82.3001V82.2927V82.2854V82.2781V82.2708V82.2634V82.2562V82.2489V82.2416V82.2343V82.2271V82.2198V82.2126V82.2054V82.1982V82.191V82.1838V82.1766V82.1695V82.1623V82.1552V82.148V82.1409V82.1338V82.1268V82.1197V82.1126V82.1056V82.0986V82.0916V82.0846V82.0776V82.0706V82.0637V82.0568V82.0498V82.0429V82.0361V82.0292V82.0223V82.0155V82.0087V82.0019V81.9951V81.9883V81.9816V81.9749V81.9682V81.9615V81.9548V81.9482V81.9415V81.9349V81.9283V81.9218V81.9152V81.9087V81.9022V81.8957V81.8892V81.8828V81.8764V81.87V81.8636V81.8572V81.8509V81.8446V81.8383V81.8321V81.8258V81.8196V81.8134V81.8072V81.8011V81.795V81.7889V81.7828V81.7768V81.7708V81.7648V81.7588V81.7529V81.7469V81.741V81.7352V81.7294V81.7235V81.7178V81.712V81.7063V81.7006V81.6949V81.6893V81.6837V81.6781V81.6725V81.667V81.6615V81.6561V81.6506V81.6452V81.6399V81.6345V81.6292V81.6239V81.6187V81.6135V81.6083V81.6031V81.598V81.5929V81.5878V81.5828V81.5778V81.5729V81.5679V81.5631V81.5582V81.5534V81.5486V81.5438V81.5391V81.5344V81.5298V81.5252V81.5206V81.5161V81.5116V81.5071V81.5026V81.4983V81.4939V81.4896V81.4853V81.481V81.4768V81.4727V81.4685V81.4644V81.4604V81.4564V81.4524V81.4485V81.4446V81.4407V81.4369V81.4331V81.4301H25.1133H25.1439L25.1721 81.4182C28.7979 79.8738 33.2339 78.9321 38.077 78.8648C43.2569 78.7975 48.028 79.7396 51.7856 81.4171L51.8148 81.4301H51.8468Z" fill="url(#paint0_linear_1821_220479)" stroke="white" stroke-width="0.3"/>
<path d="M16.4871 81.4815L16.4871 81.4814C16.4542 78.1842 18.8132 75.1196 22.7244 72.8535C26.6307 70.5902 32.0557 69.1436 38.0766 69.0763C44.0978 69.009 49.5565 70.3213 53.513 72.4923C57.474 74.6659 59.8999 77.6809 59.9328 81.0119C59.9658 84.3091 57.6067 87.3737 53.6956 89.6399C49.7893 91.9032 44.3642 93.3498 38.3433 93.417C32.3222 93.4843 26.8635 92.172 22.907 90.001C18.9459 87.8274 16.5201 84.8125 16.4871 81.4815Z" fill="url(#paint1_linear_1821_220479)" stroke="white" stroke-width="0.3"/>
<path d="M48.8089 76.57H55.0722V80.4705C55.0722 83.0257 53.236 85.3821 50.2025 87.1251C47.1736 88.8654 42.9803 89.9746 38.3428 90.0418C33.6724 90.109 29.4289 89.0838 26.35 87.3937C23.2664 85.7011 21.381 83.3613 21.3478 80.8071V80.8071V80.8064V80.8057V80.8049V80.804V80.8029V80.8018V80.8006V80.7993V80.7979V80.7964V80.7948V80.7932V80.7914V80.7895V80.7876V80.7856V80.7834V80.7812V80.7789V80.7765V80.774V80.7714V80.7688V80.766V80.7632V80.7602V80.7572V80.7541V80.7509V80.7477V80.7443V80.7409V80.7373V80.7337V80.73V80.7263V80.7224V80.7185V80.7144V80.7103V80.7061V80.7019V80.6975V80.6931V80.6886V80.684V80.6793V80.6746V80.6698V80.6649V80.6599V80.6548V80.6497V80.6445V80.6392V80.6339V80.6284V80.6229V80.6173V80.6117V80.6059V80.6001V80.5943V80.5883V80.5823V80.5762V80.57V80.5638V80.5575V80.5511V80.5447V80.5382V80.5316V80.5249V80.5182V80.5114V80.5046V80.4976V80.4906V80.4836V80.4765V80.4693V80.462V80.4547V80.4473V80.4399V80.4324V80.4248V80.4172V80.4095V80.4017V80.3939V80.386V80.378V80.37V80.362V80.3539V80.3457V80.3374V80.3291V80.3208V80.3123V80.3039V80.2953V80.2867V80.2781V80.2694V80.2606V80.2518V80.243V80.234V80.2251V80.216V80.207V80.1978V80.1886V80.1794V80.1701V80.1608V80.1514V80.1419V80.1324V80.1229V80.1133V80.1036V80.094V80.0842V80.0744V80.0646V80.0547V80.0448V80.0348V80.0248V80.0147V80.0046V79.9944V79.9842V79.974V79.9637V79.9534V79.943V79.9326V79.9221V79.9116V79.9011V79.8905V79.8799V79.8692V79.8585V79.8477V79.837V79.8261V79.8153V79.8044V79.7934V79.7825V79.7715V79.7604V79.7493V79.7382V79.7271V79.7159V79.7046V79.6934V79.6821V79.6708V79.6594V79.648V79.6366V79.6252V79.6137V79.6022V79.5906V79.579V79.5674V79.5558V79.5441V79.5324V79.5207V79.509V79.4972V79.4854V79.4735V79.4617V79.4498V79.4379V79.4259V79.414V79.402V79.39V79.378V79.3659V79.3538V79.3417V79.3296V79.3174V79.3053V79.2931V79.2809V79.2687V79.2564V79.2441V79.2318V79.2195V79.2072V79.1949V79.1825V79.1701V79.1577V79.1453V79.1329V79.1205V79.108V79.0955V79.083V79.0705V79.058V79.0455V79.0329V79.0204V79.0078V78.9952V78.9826V78.97V78.9574V78.9448V78.9322V78.9195V78.9069V78.8942V78.8816V78.8689V78.8562V78.8435V78.8308V78.8181V78.8054V78.7927V78.7799V78.7672V78.7545V78.7417V78.729V78.7163V78.7035V78.6908V78.678V78.6653V78.6525V78.6397V78.627V78.6142V78.6015V78.5887V78.576V78.5632V78.5505V78.5377V78.525V78.5122V78.4995V78.4867V78.474V78.4613V78.4485V78.4358V78.4231V78.4104V78.3977V78.385V78.3723V78.3596V78.3469V78.3342V78.3216V78.3089V78.2963V78.2837V78.271V78.2584V78.2458V78.2332V78.2207V78.2081V78.1955V78.183V78.1705V78.1579V78.1454V78.133V78.1205V78.108V78.0956V78.0832V78.0707V78.0583V78.046V78.0336V78.0213V78.0089V77.9966V77.9843V77.9721V77.9598V77.9476V77.9354V77.9232V77.911V77.8989V77.8868V77.8747V77.8626V77.8505V77.8385V77.8265V77.8145V77.8025V77.7906V77.7787V77.7668V77.755V77.7431V77.7313V77.7195V77.7078V77.6961V77.6844V77.6727V77.6611V77.6495V77.6379V77.6264V77.6148V77.6034V77.5919V77.5805V77.5691V77.5577V77.5464V77.5351V77.5239V77.5126V77.5015V77.4903V77.4792V77.4681V77.4571V77.446V77.4351V77.4241V77.4132V77.4024V77.3916V77.3808V77.37V77.3593V77.3487V77.338V77.3275V77.3169V77.3064V77.296V77.2855V77.2752V77.2648V77.2545V77.2443V77.2341V77.2239V77.2138V77.2038V77.1937V77.1838V77.1738V77.164V77.1541V77.1443V77.1346V77.1249V77.1153V77.1057V77.0961V77.0866V77.0772V77.0678V77.0585V77.0492V77.0399V77.0308V77.0216V77.0125V77.0035V76.9945V76.9856V76.9768V76.9679V76.9592V76.9505V76.9418V76.9333V76.9247V76.9163V76.9078V76.8995V76.8912V76.8829V76.8748V76.8666V76.8586V76.8506V76.8426V76.8347V76.8269V76.8192V76.8115V76.8038V76.7963V76.7888V76.7813V76.7739V76.7666V76.7594V76.7522V76.7451V76.738V76.731V76.7241V76.7172V76.7105V76.7037V76.6971V76.6905V76.684V76.6776V76.6712V76.6649V76.6586V76.6525V76.6464V76.6404V76.6344V76.6285V76.6227V76.617V76.6114V76.6058V76.6003V76.5948V76.5895V76.5842V76.579V76.5739V76.57H28.0837H28.1135L28.1411 76.5586C30.8899 75.4188 34.3815 74.6794 38.145 74.6122C42.1768 74.545 45.8678 75.2844 48.7482 76.5572L48.7772 76.57H48.8089Z" fill="url(#paint2_linear_1821_220479)" stroke="white" stroke-width="0.3"/>
<path d="M21.4153 76.6202C21.3825 74.0317 23.2019 71.6593 26.2347 69.9083C29.2631 68.1598 33.473 67.0506 38.1441 66.9833C42.8151 66.9498 47.0418 67.9751 50.1124 69.6568C53.1874 71.3409 55.0739 73.6646 55.1398 76.2201C55.172 78.8082 53.3527 81.1801 50.3204 82.9309C47.2918 84.6794 43.0818 85.7886 38.4104 85.8558C33.7399 85.923 29.4965 84.8978 26.4175 83.2077C23.3336 81.5149 21.4481 79.1747 21.4153 76.6202Z" fill="url(#paint3_linear_1821_220479)" stroke="white" stroke-width="0.3"/>
<path d="M38.2775 69.804C32.3367 69.8715 27.6111 72.6393 27.6111 75.9473C27.6786 79.2552 32.4717 81.9556 38.4125 81.8881C44.3533 81.8205 49.0789 79.0527 49.0789 75.7447C49.0114 72.4368 44.2183 69.7365 38.2775 69.804Z" fill="url(#paint4_linear_1821_220479)"/>
<path opacity="0.6" d="M0 25.7881L27.6111 76.0147C27.6786 79.3226 32.4717 82.0229 38.4125 81.9554C44.3533 81.8879 49.0789 79.1201 49.0789 75.8121L72.9095 25.5181L0 25.7881Z" fill="url(#paint5_linear_1821_220479)"/>
<path d="M63.1207 30.0414C62.7832 31.3915 62.2431 32.6742 62.1756 34.0244C62.1081 35.1045 61.9056 35.9146 61.298 36.5897C61.0955 36.8597 60.4204 36.5897 60.2179 36.2522C59.8803 35.7121 60.4879 34.5644 59.7453 34.4294C58.8677 34.2269 58.3276 34.4294 57.9901 35.5771C57.6525 36.7922 58.4626 37.8724 58.8677 39.02C58.9352 39.2901 59.2052 39.6276 58.6651 39.6951C57.855 39.8301 56.7749 39.2901 56.4374 38.48C56.2348 38.0074 55.4247 38.2099 55.1547 37.8724C54.7496 37.3998 54.8171 36.8597 54.3446 36.9948C54.007 37.1298 53.8045 37.3998 53.467 37.6023C52.8594 37.9399 51.9818 39.155 51.2392 39.0875C48.5388 38.6825 47.1887 38.8175 45.5009 39.4251C44.9609 39.6276 44.5558 39.2901 44.1508 39.3576C43.6107 39.4251 43.4082 39.0875 43.0031 38.885C42.9356 39.155 42.7331 39.5601 42.9356 39.8976C43.1381 40.1677 43.5432 40.1002 43.9482 40.1002C44.4208 40.1002 44.9609 40.3702 45.5009 40.7753C45.771 40.9778 46.3785 40.9103 46.6486 40.8428C47.5937 40.7077 48.1338 40.1677 49.1464 40.5727C50.2266 40.9778 50.9691 41.5854 50.9691 42.868C50.9691 43.7456 51.1042 44.7583 51.0367 45.5684C50.6991 47.9312 50.159 49.7539 48.6063 51.7792C48.2688 52.1842 48.2013 53.0619 47.8637 53.4669C47.3237 54.142 46.2435 54.6821 45.636 55.3572C45.0959 55.8972 44.6233 56.7748 43.9482 57.2474C42.8681 58.0575 42.5981 58.5976 41.6529 58.125C41.1129 57.855 40.1002 56.4373 39.7627 55.8972C39.2226 55.1546 38.8851 54.3445 38.6825 53.4669C38.5475 52.9943 38.5475 52.5218 38.5475 52.0492C38.48 51.0366 38.075 50.699 37.2649 50.0915C36.4548 49.5514 36.2522 49.0113 35.7122 48.2012C34.9696 47.0536 33.9569 47.1211 32.9443 46.446C32.4717 46.1085 32.2017 45.8384 32.0667 45.2308C31.9992 44.9608 32.1342 43.9482 32.1342 43.6781C32.1342 43.0706 31.9992 42.598 31.9992 41.9904C32.0667 40.2352 34.632 38.5475 36.0497 37.9399C37.0623 37.4673 37.7374 37.8049 38.6825 37.7374C39.0876 37.7374 39.8302 37.4673 40.2352 37.8724C40.5053 38.1424 40.9103 38.2099 41.1804 38.4124C41.5854 38.48 42.058 38.615 42.5305 38.615C42.5305 38.615 42.5305 38.615 42.5981 38.615C42.328 38.48 42.058 38.2774 41.788 38.0749C41.0454 37.4673 40.3703 36.6572 39.4251 36.3197C38.48 35.9146 37.4674 36.0496 36.4548 36.1171C35.3746 36.1847 34.362 35.9821 33.4844 35.7796C32.4717 35.5096 32.0667 34.6995 31.9317 33.4168C31.8642 32.9442 32.2017 32.3367 32.2017 31.7966C32.2692 30.9865 31.6616 30.4464 32.2017 29.5688C32.7418 28.6912 33.4169 27.611 34.2945 27.071C35.1046 26.5984 36.0497 26.4634 36.9273 26.1258C37.7374 25.7208 38.48 25.2482 39.1551 24.6407C40.2352 23.763 41.2479 22.8179 42.463 22.0753C45.2309 20.4551 48.5388 21.2652 51.3067 19.915C52.7244 19.2399 54.2096 16.9446 55.8973 16.8771C52.1843 12.9616 47.2562 10.3288 41.7204 9.45117C42.2605 9.92373 42.6656 10.4638 42.9356 11.0714C43.4757 12.2865 43.0031 12.8266 42.3955 13.8392C41.7879 14.7844 42.3955 15.8645 41.4504 16.6071C40.7753 17.1472 39.6277 17.3497 38.8176 17.6197C37.8049 17.9573 36.7923 18.3623 35.7797 18.6999C34.767 19.0374 33.5519 19.4425 32.4717 19.2399C31.2566 19.0374 30.9865 18.4974 30.4465 17.4847C30.3115 17.2822 30.2439 16.2021 29.3663 16.1345C28.2187 16.067 27.3411 16.067 26.5985 16.5396C25.6533 17.2147 25.3158 18.5649 25.1133 19.7125C24.9783 21.1302 25.6533 22.9529 24.7757 24.2356C24.2357 24.9782 23.2905 25.3157 22.4129 25.3832C20.6577 25.5858 19.0375 24.9782 17.2823 24.9107C15.9321 24.9107 14.8519 25.5858 14.5819 26.6659C14.3794 27.4085 14.7844 28.2186 14.7844 28.9612C14.7844 30.1089 14.7169 31.1215 14.5144 32.2016C14.4469 32.6067 14.0418 33.0793 13.7718 32.8092C12.8942 32.1341 12.1516 31.2565 11.679 30.3789C11.4765 31.3915 11.3415 32.4042 11.274 33.4168C11.6115 33.5518 12.0841 33.9569 12.4216 34.2269C13.4343 35.1045 13.3667 36.7247 13.9068 37.8049C14.8519 39.5601 16.6072 39.8301 18.0249 40.9103C18.7674 41.5178 19.4425 42.2604 19.51 43.2731C19.5776 43.8131 19.375 44.2182 19.3075 44.6908C19.0375 46.2435 19.3075 47.3911 19.9826 48.7413C21.2653 51.1716 23.2905 53.5344 25.8559 54.4795C26.3284 54.6821 27.0035 54.8171 27.206 55.2221C27.4086 55.5597 26.1259 56.0998 25.7884 56.3023C24.8432 56.8424 23.8981 57.1799 23.0205 57.2474C27.1385 59.8802 31.9992 61.4329 37.1974 61.4329C51.6442 61.4329 63.3908 49.6864 63.3908 35.2395C63.6608 33.4843 63.4583 31.7291 63.1207 30.0414ZM15.527 36.6572C15.4595 36.4547 15.4595 36.1847 15.4595 35.9821C15.4595 35.5771 15.392 35.307 15.257 34.9695C15.122 34.6995 15.0545 34.4294 15.257 34.1594C15.527 33.6868 15.7971 34.2944 15.9996 34.5644C16.1346 34.6995 16.3371 35.037 16.4046 35.2395C16.4046 35.307 16.4721 35.3745 16.4721 35.4421C16.5397 35.6446 16.4721 35.8471 16.4046 36.0496C16.3371 36.5222 16.2696 36.7922 16.4721 37.2648C16.5397 37.3998 16.6072 37.6023 16.5397 37.6023C16.0671 37.4673 15.662 37.0623 15.527 36.6572ZM17.5523 39.6276C17.4848 39.6951 17.5523 39.4251 17.2823 39.2226C16.9447 39.02 16.4046 38.75 16.3371 38.2774C16.2696 38.0074 16.4721 37.8724 16.7422 37.7374C16.8772 37.6699 16.9447 37.8049 17.0122 38.0074C17.1472 38.2099 17.3498 38.2774 17.5523 38.4124C17.8223 38.75 17.8898 39.4251 17.5523 39.6276ZM24.7757 27.5435C24.6407 27.9486 24.5057 28.2186 24.4382 28.6912C24.3707 28.9612 24.4382 29.2313 24.2357 29.5013C23.8981 29.8388 23.4256 29.7713 23.088 29.5013C22.3454 28.9612 21.8053 28.0161 21.0627 27.476C20.7252 27.2735 20.3202 27.1385 20.3877 26.7334C20.5227 26.2609 21.1978 26.1258 21.6028 26.1258C22.1429 26.1258 22.7505 26.4634 23.1555 26.1258C23.4931 25.8558 24.0331 25.7208 24.3032 25.9233C24.8432 26.2609 24.9783 27.071 24.7757 27.5435ZM52.1168 52.5893C51.8468 52.9943 51.8468 53.9395 51.3742 54.3445C50.9016 54.7496 50.0915 54.8171 49.619 55.0196C48.9439 55.2896 48.8764 54.277 49.0789 53.3319C49.2139 52.5893 50.2941 52.3193 50.8341 51.7792C51.3742 51.1716 51.7117 50.4965 51.9143 49.9565C52.0493 49.6864 52.1168 49.0788 52.3868 49.3489C53.1969 50.294 52.7919 51.5767 52.1168 52.5893Z" fill="url(#paint6_radial_1821_220479)"/>
<path d="M42.5305 22.0079C41.3154 22.7505 40.3028 23.6956 39.2226 24.5732C38.5475 25.1133 37.8049 25.6533 36.9948 26.0584C36.1847 26.4635 35.1721 26.5985 34.362 27.0035C33.4169 27.5436 32.8093 28.6237 32.2692 29.5014C31.7291 30.379 32.2692 30.919 32.2692 31.7291C32.2017 32.2017 31.9317 32.8768 31.9992 33.3494C32.1342 34.632 32.4717 35.4421 33.5519 35.7122C34.4295 35.9147 35.4421 36.1172 36.5223 36.0497C37.5349 35.9822 38.5475 35.8472 39.4927 36.2522C40.4378 36.6573 41.0454 37.3999 41.8555 38.0075C42.1255 38.21 42.3955 38.4125 42.6656 38.5475C42.6656 38.5475 42.6656 38.5475 42.5981 38.5475C42.1255 38.5475 41.6529 38.48 41.2479 38.345C40.9103 38.1425 40.5728 38.075 40.3028 37.8049C39.8977 37.4674 39.2226 37.6699 38.7501 37.6699C37.8049 37.8049 37.1298 37.4674 36.0497 37.94C34.632 38.5475 31.9992 40.2353 31.9992 41.9905C31.9992 42.5981 32.1342 43.0706 32.1342 43.6782C32.1342 43.8807 31.9992 44.9609 32.0667 45.2309C32.2017 45.771 32.4717 46.1085 32.9443 46.4461C33.9569 47.1212 34.9696 47.0536 35.7122 48.2013C36.2522 49.0114 36.5223 49.484 37.2649 50.0915C38.075 50.6316 38.4125 50.9692 38.5475 52.0493C38.615 52.5219 38.615 52.9944 38.6825 53.467C38.8851 54.3446 39.2226 55.1547 39.7627 55.8973C40.1002 56.4374 41.1129 57.855 41.6529 58.1251C42.6656 58.5976 42.8681 58.0576 43.9482 57.2475C44.5558 56.7749 45.0284 55.8973 45.636 55.3572C46.311 54.7496 47.3237 54.2096 47.8637 53.467C48.2013 53.0619 48.2688 52.1843 48.6063 51.7793C50.2266 49.754 50.6991 47.9313 51.0367 45.5684C51.1717 44.6908 50.9691 43.7457 50.9691 42.8681C50.9691 41.5854 50.2266 40.9778 49.1464 40.5728C48.1338 40.1677 47.5937 40.6403 46.6486 40.8428C46.3785 40.9103 45.771 40.9778 45.5009 40.7753C44.9609 40.3703 44.4208 40.1002 43.9482 40.1002C43.5432 40.1002 43.1381 40.1002 42.9356 39.8977C42.7331 39.6277 42.9356 39.1551 43.0031 38.8851C43.3407 39.0876 43.6107 39.4927 44.1508 39.3576C44.5558 39.2901 44.9609 39.6277 45.5009 39.4251C47.2562 38.8176 48.6063 38.6826 51.2392 39.0876C51.9818 39.2226 52.8594 38.0075 53.467 37.6024C53.8045 37.3999 54.007 37.0623 54.3446 36.9948C54.7496 36.8598 54.7496 37.3999 55.1547 37.8724C55.4247 38.21 56.2348 38.0075 56.4374 38.48C56.7749 39.2901 57.855 39.7627 58.6652 39.6952C59.2052 39.6277 58.9352 39.2901 58.8677 39.0201C58.4626 37.8724 57.6525 36.7923 57.9901 35.5771C58.3276 34.4295 58.8002 34.227 59.7453 34.4295C60.4879 34.5645 59.8803 35.7122 60.2179 36.2522C60.4204 36.5898 61.0955 36.8598 61.298 36.5898C61.9056 35.9822 62.1081 35.1721 62.1756 34.0244C62.2431 32.6068 62.7832 31.3916 63.1207 30.0414C62.1081 24.9108 59.5428 20.3202 55.9648 16.7422C54.2771 16.8097 52.7244 19.105 51.3742 19.7801C48.6063 21.1978 45.2309 20.3202 42.5305 22.0079Z" fill="#77B6AE"/>
<path d="M51.8468 49.9569C51.6442 50.4969 51.2392 51.172 50.7666 51.7796C50.2941 52.3197 49.2139 52.6572 49.0114 53.3323C48.8089 54.2774 48.8764 55.2901 49.5515 55.02C50.024 54.8175 50.8341 54.8175 51.3067 54.345C51.8468 53.8724 51.8468 52.9948 52.0493 52.5897C52.7244 51.5771 53.1294 50.2269 52.2518 49.2818C52.1168 49.0793 51.9818 49.6868 51.8468 49.9569Z" fill="#77B6AE"/>
<path d="M27.4086 55.3571C27.1385 54.952 26.4634 54.817 26.0584 54.6145C23.4256 53.6694 21.4678 51.3066 20.1851 48.8763C19.4425 47.5261 19.24 46.3784 19.51 44.8257C19.5776 44.2857 19.7126 43.9481 19.7126 43.408C19.6451 42.3954 18.97 41.6528 18.2274 41.0452C16.8097 39.9651 14.987 39.6951 14.1093 37.9398C13.5018 36.7922 13.5693 35.172 12.6241 34.3619C12.2866 34.0918 11.814 33.6868 11.4765 33.5518C11.409 34.1593 11.409 34.7669 11.409 35.3745C11.409 44.6232 16.2021 52.7243 23.4256 57.3824C24.3032 57.3149 25.2483 57.0448 26.1934 56.4372C26.3284 56.1672 27.6111 55.6946 27.4086 55.3571Z" fill="#77B6AE"/>
<path d="M13.7718 32.8094C14.1093 33.0794 14.4469 32.6068 14.5144 32.2018C14.7169 31.1216 14.8519 30.1765 14.7844 28.9614C14.7844 28.2188 14.3794 27.4087 14.5819 26.6661C14.8519 25.5859 15.8646 24.9108 17.2823 24.9108C18.97 24.9108 20.6577 25.5859 22.4129 25.3834C23.2905 25.2484 24.2357 24.9783 24.7757 24.2357C25.6533 22.9531 24.9783 21.1303 25.2483 19.7127C25.4508 18.565 25.7884 17.2148 26.7335 16.5397C27.4761 16.0672 28.3537 16.1347 29.5013 16.1347C30.379 16.2022 30.4465 17.2823 30.5815 17.4849C31.1216 18.43 31.3916 19.0376 32.6068 19.2401C33.7544 19.4426 34.9021 19.1051 35.9147 18.7C36.9273 18.3625 37.9399 17.9574 38.9526 17.6199C39.7627 17.3498 40.9103 17.1473 41.5854 16.6072C42.463 15.8646 41.923 14.852 42.5305 13.8394C43.1381 12.8943 43.6107 12.2867 43.0706 11.0715C42.8006 10.4639 42.328 9.92388 41.8555 9.45131C40.4378 9.24879 39.0201 9.11377 37.5349 9.11377C24.7082 9.11377 14.1093 18.295 11.814 30.4465C12.2191 31.3242 12.8942 32.1343 13.7718 32.8094Z" fill="#77B6AE"/>
<path d="M16.4721 37.1976C16.3371 36.7925 16.3371 36.455 16.4046 35.9824C16.4721 35.7799 16.4721 35.5774 16.4721 35.3749C16.4721 35.3074 16.4046 35.2398 16.4046 35.1723C16.3371 34.9698 16.1346 34.6998 15.9996 34.4972C15.7296 34.1597 15.4595 33.6196 15.257 34.0922C15.0545 34.3622 15.1895 34.6323 15.257 34.9023C15.392 35.2398 15.4595 35.5774 15.4595 35.9149C15.4595 36.1175 15.392 36.3875 15.527 36.59C15.662 36.9951 16.0671 37.4676 16.5397 37.4001C16.6072 37.4676 16.5397 37.2651 16.4721 37.1976Z" fill="#77B6AE"/>
<path d="M17.0122 38.0752C16.9447 37.8727 16.8772 37.7376 16.7422 37.8052C16.4721 37.9402 16.2696 38.0752 16.3371 38.3452C16.4046 38.7503 16.9447 39.0203 17.2823 39.2904C17.5523 39.4929 17.4848 39.6954 17.5523 39.6954C17.8898 39.4929 17.7548 38.8853 17.4848 38.6153C17.3498 38.3452 17.1472 38.2777 17.0122 38.0752Z" fill="#77B6AE"/>
<path d="M23.223 26.1259C22.7505 26.4635 22.2104 26.1259 21.6703 26.1259C21.2653 26.1259 20.5902 26.261 20.4552 26.7335C20.3201 27.2061 20.7927 27.2736 21.1303 27.4761C21.8729 28.0162 22.4129 28.9613 23.1555 29.5014C23.4931 29.7714 23.9656 29.8389 24.3032 29.5014C24.5057 29.2313 24.4382 29.0288 24.5057 28.6913C24.5732 28.2187 24.7082 27.9487 24.8432 27.5436C25.0458 27.0035 24.9783 26.261 24.5057 25.8559C24.1006 25.6534 23.5606 25.7884 23.223 26.1259Z" fill="#77B6AE"/>
<path opacity="0.2" d="M50.024 41.9233C42.8681 54.4124 29.0963 59.7456 19.105 54.0074C11.8815 47.054 7.83102 34.2948 14.7169 22.1432C21.8729 9.6541 37.0623 6.27866 48.4038 11.4768C55.4247 18.2952 56.3699 30.9869 50.024 41.9233Z" fill="#B7FF95"/>
<path opacity="0.2" d="M40.7297 34.4786C45.3715 26.4389 43.9258 16.9141 37.5005 13.2043C31.0751 9.49454 22.1034 13.0047 17.4616 21.0444C12.8197 29.0841 14.2655 38.6089 20.6908 42.3187C27.1161 46.0285 36.0878 42.5183 40.7297 34.4786Z" fill="#B7FF95"/>
<path opacity="0.2" d="M33.9569 27.2061C31.3916 31.6617 26.3284 33.6194 22.7505 31.5942C19.1725 29.5014 18.3624 24.2357 20.9277 19.7126C23.4931 15.257 28.5562 13.2993 32.1342 15.3246C35.7122 17.4173 36.5223 22.683 33.9569 27.2061Z" fill="#B7FF95"/>
<path d="M49.9574 32.4044C49.9574 32.7422 49.6872 33.0124 49.3494 33.0124C49.0116 33.0124 48.7414 32.7422 48.7414 32.4044C48.7414 32.0666 49.0116 31.7964 49.3494 31.7964C49.6872 31.7964 49.9574 32.0666 49.9574 32.4044Z" fill="#B7FF95"/>
<path d="M24.2365 60.0831C24.2365 60.4209 23.9663 60.6911 23.6285 60.6911C23.2907 60.6911 23.0205 60.4209 23.0205 60.0831C23.0205 59.7453 23.2907 59.4751 23.6285 59.4751C23.9663 59.4751 24.2365 59.7453 24.2365 60.0831Z" fill="#B7FF95"/>
<path d="M17.5532 30.3121C17.5532 30.6499 17.2829 30.9201 16.9452 30.9201C16.6074 30.9201 16.3371 30.6499 16.3371 30.3121C16.3371 29.9743 16.6074 29.7041 16.9452 29.7041C17.2829 29.7041 17.5532 29.9743 17.5532 30.3121Z" fill="#B7FF95"/>
<path d="M57.5859 43.0714C57.5859 43.4092 57.3157 43.6794 56.9779 43.6794C56.6401 43.6794 56.3699 43.4092 56.3699 43.0714C56.3699 42.7336 56.6401 42.4634 56.9779 42.4634C57.3157 42.4634 57.5859 42.7336 57.5859 43.0714Z" fill="#B7FF95"/>
<path d="M41.9239 73.5851C41.9239 73.9229 41.6536 74.1931 41.3158 74.1931C40.978 74.1931 40.7078 73.9229 40.7078 73.5851C40.7078 73.2473 40.978 72.9771 41.3158 72.9771C41.6536 72.9771 41.9239 73.2473 41.9239 73.5851Z" fill="#B7FF95"/>
<path d="M38.0759 58.8683C38.0759 59.2061 37.8056 59.4763 37.4678 59.4763C37.13 59.4763 36.8598 59.2061 36.8598 58.8683C36.8598 58.5305 37.13 58.2603 37.4678 58.2603C37.8056 58.2603 38.0759 58.5305 38.0759 58.8683Z" fill="#B7FF95"/>
<path d="M38.6834 71.2897C38.6834 71.6275 38.4132 71.8977 38.0754 71.8977C37.7376 71.8977 37.4674 71.6275 37.4674 71.2897C37.4674 70.9519 37.7376 70.6816 38.0754 70.6816C38.4132 70.6816 38.6834 70.8843 38.6834 71.2897Z" fill="#B7FF95"/>
<path d="M50.9016 26.7335C51.4236 26.7335 51.8468 26.3104 51.8468 25.7884C51.8468 25.2664 51.4236 24.8433 50.9016 24.8433C50.3797 24.8433 49.9565 25.2664 49.9565 25.7884C49.9565 26.3104 50.3797 26.7335 50.9016 26.7335Z" fill="#B7FF95"/>
<path d="M55.2222 48.4039C55.7442 48.4039 56.1673 47.9808 56.1673 47.4588C56.1673 46.9368 55.7442 46.5137 55.2222 46.5137C54.7002 46.5137 54.2771 46.9368 54.2771 47.4588C54.2771 47.9808 54.7002 48.4039 55.2222 48.4039Z" fill="#B7FF95"/>
<path d="M17.7004 37.9605C17.7837 37.4452 17.4335 36.9599 16.9182 36.8766C16.4029 36.7933 15.9176 37.1435 15.8343 37.6588C15.751 38.1741 16.1012 38.6593 16.6165 38.7426C17.1318 38.8259 17.6171 38.4758 17.7004 37.9605Z" fill="#B7FF95"/>
<path d="M31.1891 64.8758C31.1891 65.4159 30.784 65.8209 30.2439 65.8209C29.7039 65.8209 29.2988 65.4159 29.2988 64.8758C29.2988 64.3357 29.7039 63.9307 30.2439 63.9307C30.784 63.9307 31.1891 64.3357 31.1891 64.8758Z" fill="#B7FF95"/>
<path d="M30.0414 37.4671C30.0414 38.0072 29.6364 38.4122 29.0963 38.4122C28.5562 38.4122 28.1512 38.0072 28.1512 37.4671C28.1512 36.927 28.5562 36.522 29.0963 36.522C29.6364 36.522 30.0414 36.927 30.0414 37.4671Z" fill="#B7FF95"/>
<path d="M51.8468 61.9728C52.3687 61.9728 52.7919 61.5496 52.7919 61.0276C52.7919 60.5057 52.3687 60.0825 51.8468 60.0825C51.3248 60.0825 50.9016 60.5057 50.9016 61.0276C50.9016 61.5496 51.3248 61.9728 51.8468 61.9728Z" fill="#B7FF95"/>
<path opacity="0.6" d="M63.6617 16.7428C63.6617 17.0806 63.3915 17.3508 63.0537 17.3508C62.7159 17.3508 62.4456 17.0806 62.4456 16.7428C62.4456 16.405 62.7159 16.1348 63.0537 16.1348C63.3915 16.1348 63.6617 16.405 63.6617 16.7428Z" fill="#96D1B5"/>
<path opacity="0.6" d="M43.9491 5.87365C43.9491 6.21144 43.6789 6.48167 43.3411 6.48167C43.0033 6.48167 42.7331 6.21144 42.7331 5.87365C42.7331 5.53586 43.0033 5.26562 43.3411 5.26562C43.6789 5.26563 43.9491 5.53586 43.9491 5.87365Z" fill="#96D1B5"/>
<path opacity="0.6" d="M17.2156 7.08849C17.2156 7.42628 16.9454 7.69651 16.6076 7.69651C16.2698 7.69651 15.9996 7.42628 15.9996 7.08849C15.9996 6.7507 16.2698 6.48047 16.6076 6.48047C16.9454 6.48047 17.2156 6.7507 17.2156 7.08849Z" fill="#96D1B5"/>
<path opacity="0.6" d="M2.83626 18.2281C2.83626 18.5659 2.56602 18.8362 2.22823 18.8362C1.89044 18.8362 1.62021 18.5659 1.62021 18.2281C1.62021 17.8903 1.89044 17.6201 2.22823 17.6201C2.56602 17.6201 2.83626 17.8903 2.83626 18.2281Z" fill="#96D1B5"/>
<path opacity="0.6" d="M8.70952 27.7462C8.70952 28.084 8.43929 28.3542 8.1015 28.3542C7.76371 28.3542 7.49348 28.084 7.49348 27.7462C7.49348 27.4084 7.76371 27.1382 8.1015 27.1382C8.43929 27.1382 8.70952 27.4084 8.70952 27.7462Z" fill="#96D1B5"/>
<path opacity="0.6" d="M64.8085 12.5568C65.3304 12.5568 65.7536 12.1336 65.7536 11.6116C65.7536 11.0897 65.3304 10.6665 64.8085 10.6665C64.2865 10.6665 63.8633 11.0897 63.8633 11.6116C63.8633 12.1336 64.2865 12.5568 64.8085 12.5568Z" fill="#96D1B5"/>
<path opacity="0.6" d="M47.5262 1.89025C48.0482 1.89025 48.4713 1.4671 48.4713 0.945123C48.4713 0.423146 48.0482 0 47.5262 0C47.0042 0 46.5811 0.423146 46.5811 0.945123C46.5811 1.4671 47.0042 1.89025 47.5262 1.89025Z" fill="#96D1B5"/>
<path opacity="0.6" d="M36.1847 5.26573C36.7067 5.26573 37.1298 4.84259 37.1298 4.32061C37.1298 3.79863 36.7067 3.37549 36.1847 3.37549C35.6627 3.37549 35.2396 3.79863 35.2396 4.32061C35.2396 4.84259 35.6627 5.26573 36.1847 5.26573Z" fill="#96D1B5"/>
<path opacity="0.6" d="M11.0039 15.2571C11.0039 15.7972 10.5989 16.2023 10.0588 16.2023C9.51874 16.2023 9.11369 15.7972 9.11369 15.2571C9.11369 14.7171 9.51874 14.312 10.0588 14.312C10.5314 14.312 11.0039 14.7171 11.0039 15.2571Z" fill="#96D1B5"/>
<path opacity="0.6" d="M70.0066 22.8859C70.5286 22.8859 70.9518 22.4627 70.9518 21.9407C70.9518 21.4188 70.5286 20.9956 70.0066 20.9956C69.4847 20.9956 69.0615 21.4188 69.0615 21.9407C69.0615 22.4627 69.4847 22.8859 70.0066 22.8859Z" fill="#96D1B5"/>
</g>
<defs>
<linearGradient id="paint0_linear_1821_220479" x1="19.3593" y1="95.0428" x2="25.3903" y2="76.7487" gradientUnits="userSpaceOnUse">
<stop stop-color="#93A5CF"/>
<stop offset="1" stop-color="#E4EFE9"/>
</linearGradient>
<linearGradient id="paint1_linear_1821_220479" x1="60.0832" y1="79.5" x2="41.9425" y2="101.943" gradientUnits="userSpaceOnUse">
<stop stop-color="#93A5CF"/>
<stop offset="1" stop-color="#E4EFE9"/>
</linearGradient>
<linearGradient id="paint2_linear_1821_220479" x1="23.5447" y1="89.3241" x2="29.7522" y2="73.2603" gradientUnits="userSpaceOnUse">
<stop stop-color="#93A5CF"/>
<stop offset="1" stop-color="#E4EFE9"/>
</linearGradient>
<linearGradient id="paint3_linear_1821_220479" x1="55.2902" y1="75.0617" x2="41.1741" y2="92.5193" gradientUnits="userSpaceOnUse">
<stop stop-color="#93A5CF"/>
<stop offset="1" stop-color="#E4EFE9"/>
</linearGradient>
<linearGradient id="paint4_linear_1821_220479" x1="38.345" y1="71.5" x2="38.345" y2="81.8893" gradientUnits="userSpaceOnUse">
<stop stop-color="#475876"/>
<stop offset="1" stop-color="#D9E9E2"/>
</linearGradient>
<linearGradient id="paint5_linear_1821_220479" x1="72.9095" y1="29.3982" x2="71.3775" y2="76.2502" gradientUnits="userSpaceOnUse">
<stop stop-color="#8CFF56" stop-opacity="0"/>
<stop offset="0.213542" stop-color="#B1FE87" stop-opacity="0.46"/>
<stop offset="0.348958" stop-color="#93FA84" stop-opacity="0.71"/>
<stop offset="0.46875" stop-color="#99CCC1"/>
<stop offset="0.6028" stop-color="#81C0CC"/>
<stop offset="0.7203" stop-color="#70B7D3"/>
<stop offset="0.8471" stop-color="#65B2D8"/>
<stop offset="1" stop-color="#62B0D9"/>
</linearGradient>
<radialGradient id="paint6_radial_1821_220479" cx="0" cy="0" r="1" gradientUnits="userSpaceOnUse" gradientTransform="translate(37.3949 35.4421) scale(26.121 25.9909)">
<stop offset="0.20501" stop-color="#13547A"/>
<stop offset="1" stop-color="#80D0C7"/>
</radialGradient>
<clipPath id="clip0_1821_220479">
<rect width="72.9627" height="96" fill="white"/>
</clipPath>
</defs>
</svg>
