<svg width="96" height="96" viewBox="0 0 96 96" fill="none" xmlns="http://www.w3.org/2000/svg">
<path opacity="0.6" d="M47.6678 73.7052V79.9152L24.0222 93.6007V87.3147L47.6678 73.7052Z" fill="url(#paint0_linear_1821_220480)" stroke="white" stroke-width="0.2"/>
<path d="M0 79.9728L23.9222 93.7741V87.2568L0 73.5322V79.9728Z" fill="url(#paint1_linear_1821_220480)"/>
<path opacity="0.6" d="M0.200529 73.532L23.9222 59.8465L47.5677 73.532L23.9222 87.1415L0.200529 73.532Z" fill="url(#paint2_linear_1821_220480)" stroke="white" stroke-width="0.2"/>
<path opacity="0.6" d="M47.6678 64.1983V70.4845L24.0222 84.17V77.8839L47.6678 64.1983Z" fill="url(#paint3_linear_1821_220480)" stroke="white" stroke-width="0.2"/>
<path d="M0 70.5422L23.9222 84.3435V77.8262L0 64.0249V70.5422Z" fill="url(#paint4_linear_1821_220480)"/>
<path opacity="0.6" d="M0.200111 64.0249L23.9222 50.3391L47.5682 64.0249L23.9222 77.7107L0.200111 64.0249Z" fill="url(#paint5_linear_1821_220480)" stroke="white" stroke-width="0.2"/>
<path opacity="0.6" d="M47.6678 54.7667V61.0529L24.0222 74.7384V68.4522L47.6678 54.7667Z" fill="url(#paint6_linear_1821_220480)" stroke="white" stroke-width="0.2"/>
<path d="M0 61.1105L23.9222 74.9118V68.3946L0 54.5933V61.1105Z" fill="url(#paint7_linear_1821_220480)"/>
<path opacity="0.6" d="M0.200111 54.5938L23.9222 40.908L47.5682 54.5938L23.9222 68.2796L0.200111 54.5938Z" fill="url(#paint8_linear_1821_220480)" stroke="white" stroke-width="0.2"/>
<path d="M23.9222 46.9268C17.0982 46.9268 11.5777 50.0704 11.5777 53.9041C11.5777 57.7378 17.0982 60.8814 23.9222 60.8814C30.7462 60.8814 36.2667 57.7378 36.2667 53.9041C36.2667 50.0704 30.7462 46.9268 23.9222 46.9268Z" fill="url(#paint9_linear_1821_220480)"/>
<g opacity="0.7">
<path opacity="0.8" d="M23.9222 2.22559C17.0983 2.22559 11.5011 5.36921 11.5011 9.20291C11.5011 13.0366 17.0216 16.1802 23.8456 16.1802C30.6695 16.1802 36.19 13.0366 36.19 9.20291C36.2667 5.36921 30.7462 2.22559 23.9222 2.22559Z" fill="url(#paint10_linear_1821_220480)"/>
<path opacity="0.8" d="M11.6778 53.904V10.4724C12.1422 11.9282 13.3893 13.2237 15.1417 14.2164C17.3924 15.4915 20.4962 16.2804 23.9222 16.2804C27.3483 16.2804 30.4521 15.4915 32.7028 14.2164C34.4551 13.2237 35.7023 11.9282 36.1667 10.4724V53.904C36.1667 55.7689 34.8229 57.4863 32.6042 58.7433C30.3886 59.9984 27.3201 60.7813 23.9222 60.7813C20.5244 60.7813 17.4559 59.9984 15.2403 58.7433C13.0216 57.4863 11.6778 55.7689 11.6778 53.904Z" fill="url(#paint11_linear_1821_220480)" stroke="white" stroke-width="0.2"/>
</g>
<path d="M26.3758 50.2236C25.9924 50.2236 25.7624 50.5303 25.7624 50.837V54.364C25.7624 54.7474 26.0691 54.9774 26.3758 54.9774C26.7592 54.9774 26.9892 54.6707 26.9892 54.364V50.837C26.9892 50.5303 26.6825 50.2236 26.3758 50.2236Z" fill="#A4B8D6"/>
<path d="M21.2386 28.6787C20.8553 28.6787 20.6252 28.9854 20.6252 29.2921V30.8256C20.6252 31.2089 20.9319 31.439 21.2386 31.439C21.622 31.439 21.852 31.1323 21.852 30.8256V29.2921C21.852 28.9854 21.5453 28.6787 21.2386 28.6787Z" fill="#B7FF95"/>
<path d="M16.0248 50.6068C15.6415 50.6068 15.4114 50.3001 15.4114 49.9934V38.2623C15.4114 37.8789 15.7181 37.6489 16.0248 37.6489C16.4082 37.6489 16.6382 37.9556 16.6382 38.2623V49.9934C16.7149 50.3768 16.4082 50.6068 16.0248 50.6068Z" fill="#A4B8D6"/>
<path d="M18.6317 39.3364C18.2484 39.3364 18.0183 39.0297 18.0183 38.723V32.0524C18.0183 31.669 18.325 31.439 18.6317 31.439C19.0151 31.439 19.2451 31.7457 19.2451 32.0524V38.723C19.2451 39.0297 19.0151 39.3364 18.6317 39.3364Z" fill="#A4B8D6"/>
<path d="M16.0248 30.0586C15.6415 30.0586 15.4114 30.3653 15.4114 30.672V33.5089C15.4114 33.8923 15.7181 34.1223 16.0248 34.1223C16.4082 34.1223 16.6382 33.8156 16.6382 33.5089V30.672C16.7149 30.3653 16.4082 30.0586 16.0248 30.0586Z" fill="#B7FF95"/>
<path d="M18.6317 41.4829C18.2484 41.4829 18.0183 41.7896 18.0183 42.0963V46.2367C18.0183 46.6201 18.325 46.8501 18.6317 46.8501C19.0151 46.8501 19.2451 46.5434 19.2451 46.2367V42.0963C19.2451 41.7896 19.0151 41.4829 18.6317 41.4829Z" fill="#B7FF95"/>
<path d="M18.6317 29.5218C18.2484 29.5218 18.0183 29.2151 18.0183 28.9085V17.1774C18.0183 16.794 18.325 16.564 18.6317 16.564C19.0151 16.564 19.2451 16.8707 19.2451 17.1774V28.9085C19.2451 29.2151 19.0151 29.5218 18.6317 29.5218Z" fill="#B7FF95"/>
<path d="M21.2386 48.0004C20.8553 48.0004 20.6252 47.6937 20.6252 47.387V35.6559C20.6252 35.2725 20.9319 35.0425 21.2386 35.0425C21.622 35.0425 21.852 35.3492 21.852 35.6559V47.387C21.852 47.6937 21.5453 48.0004 21.2386 48.0004Z" fill="#A4B8D6"/>
<path d="M21.2386 19.478C20.8553 19.478 20.6252 19.1713 20.6252 18.8646V12.194C20.6252 11.8106 20.9319 11.5806 21.2386 11.5806C21.622 11.5806 21.852 11.8873 21.852 12.194V18.8646C21.852 19.2479 21.5453 19.478 21.2386 19.478Z" fill="#A4B8D6"/>
<path d="M23.7689 13.1904C23.3855 13.1904 23.1555 12.8837 23.1555 12.577V5.90636C23.1555 5.52299 23.4622 5.29297 23.7689 5.29297C24.1523 5.29297 24.3823 5.59966 24.3823 5.90636V12.577C24.459 12.9604 24.1523 13.1904 23.7689 13.1904Z" fill="#A4B8D6"/>
<path d="M16.0248 20.4746C15.6415 20.4746 15.4114 20.1679 15.4114 19.8612V13.1905C15.4114 12.8072 15.7181 12.5771 16.0248 12.5771C16.4082 12.5771 16.6382 12.8838 16.6382 13.1905V19.8612C16.7149 20.2445 16.4082 20.4746 16.0248 20.4746Z" fill="#B7FF95"/>
<path d="M18.6317 9.66309C18.2484 9.66309 18.0183 9.96978 18.0183 10.2765V13.1134C18.0183 13.4968 18.325 13.7268 18.6317 13.7268C19.0151 13.7268 19.2451 13.4201 19.2451 13.1134V10.2765C19.2451 9.96978 19.0151 9.66309 18.6317 9.66309Z" fill="#A4B8D6"/>
<path d="M23.7689 16.104C23.3855 16.104 23.1555 16.4107 23.1555 16.7174V19.5543C23.1555 19.9377 23.4622 20.1677 23.7689 20.1677C24.1523 20.1677 24.3823 19.861 24.3823 19.5543V16.7174C24.3823 16.334 24.1523 16.104 23.7689 16.104Z" fill="#A4B8D6"/>
<path d="M21.2386 23.2344C20.8553 23.2344 20.6252 23.5411 20.6252 23.8478V26.6847C20.6252 27.0681 20.9319 27.2981 21.2386 27.2981C21.622 27.2981 21.852 26.9914 21.852 26.6847V23.8478C21.852 23.5411 21.5453 23.2344 21.2386 23.2344Z" fill="#A4B8D6"/>
<path d="M16.0248 25.8413C15.6415 25.8413 15.4114 26.148 15.4114 26.4547V27.9882C15.4114 28.3715 15.7181 28.6016 16.0248 28.6016C16.4082 28.6016 16.6382 28.2949 16.6382 27.9882V26.4547C16.7149 26.148 16.4082 25.8413 16.0248 25.8413Z" fill="#A4B8D6"/>
<path d="M31.513 49.9174C31.8964 49.9174 32.1264 49.6107 32.1264 49.304V37.5729C32.1264 37.1895 31.8197 36.9595 31.513 36.9595C31.1296 36.9595 30.8996 37.2662 30.8996 37.5729V49.304C30.8996 49.6107 31.2063 49.9174 31.513 49.9174Z" fill="#A4B8D6"/>
<path d="M28.9827 39.8725C29.3661 39.8725 29.5961 39.5658 29.5961 39.2591V32.5885C29.5961 32.2051 29.2894 31.9751 28.9827 31.9751C28.5994 31.9751 28.3693 32.2818 28.3693 32.5885V39.2591C28.2927 39.6425 28.5994 39.8725 28.9827 39.8725Z" fill="#A4B8D6"/>
<path d="M31.513 30.6719C31.8964 30.6719 32.1264 30.9786 32.1264 31.2853V34.1222C32.1264 34.5056 31.8197 34.7356 31.513 34.7356C31.1296 34.7356 30.8996 34.4289 30.8996 34.1222V31.2853C30.8996 30.9786 31.2063 30.6719 31.513 30.6719Z" fill="#B7FF95"/>
<path d="M28.9827 42.0967C29.3661 42.0967 29.5961 42.4034 29.5961 42.7101V51.3742C29.5961 51.7576 29.2894 51.9876 28.9827 51.9876C28.5994 51.9876 28.3693 51.6809 28.3693 51.3742V42.7101C28.2927 42.4034 28.5994 42.0967 28.9827 42.0967Z" fill="#B7FF95"/>
<path d="M28.9827 30.0585C29.3661 30.0585 29.5961 29.7518 29.5961 29.4451V17.714C29.5961 17.3306 29.2894 17.1006 28.9827 17.1006C28.5994 17.1006 28.3693 17.4073 28.3693 17.714V29.4451C28.2927 29.8284 28.5994 30.0585 28.9827 30.0585Z" fill="#A4B8D6"/>
<path d="M31.513 21.0878C31.8964 21.0878 32.1264 20.7812 32.1264 20.4745V13.7272C32.1264 13.3438 31.8197 13.1138 31.513 13.1138C31.1296 13.1138 30.8996 13.4205 30.8996 13.7272V20.3978C30.8996 20.7812 31.2063 21.0878 31.513 21.0878Z" fill="#A4B8D6"/>
<path d="M28.9827 10.2769C29.3661 10.2769 29.5961 10.5836 29.5961 10.8902V13.7272C29.5961 14.1105 29.2894 14.3406 28.9827 14.3406C28.5994 14.3406 28.3693 14.0339 28.3693 13.7272V10.8902C28.2927 10.5836 28.5994 10.2769 28.9827 10.2769Z" fill="#B7FF95"/>
<path d="M31.513 26.4546C31.8964 26.4546 32.1264 26.7613 32.1264 27.068V28.6015C32.1264 28.9848 31.8197 29.2148 31.513 29.2148C31.1296 29.2148 30.8996 28.9082 30.8996 28.6015V27.068C30.8996 26.6846 31.2063 26.4546 31.513 26.4546Z" fill="#B7FF95"/>
<path d="M23.7689 21.7783C23.3855 21.7783 23.1555 22.085 23.1555 22.3917V23.9252C23.1555 24.3086 23.4622 24.5386 23.7689 24.5386C24.1523 24.5386 24.3823 24.2319 24.3823 23.9252V22.3917C24.459 22.085 24.1523 21.7783 23.7689 21.7783Z" fill="#B7FF95"/>
<path d="M21.2386 6.90332C20.8553 6.90332 20.6252 7.21002 20.6252 7.51671V9.05019C20.6252 9.43356 20.9319 9.66358 21.2386 9.66358C21.622 9.66358 21.852 9.35688 21.852 9.05019V7.51671C21.852 7.13334 21.5453 6.90332 21.2386 6.90332Z" fill="#B7FF95"/>
<path d="M26.3758 8.2832C25.9924 8.2832 25.7624 8.5899 25.7624 8.89659V10.4301C25.7624 10.8134 26.0691 11.0435 26.3758 11.0435C26.7592 11.0435 26.9892 10.7368 26.9892 10.4301V8.89659C26.9892 8.5899 26.6825 8.2832 26.3758 8.2832Z" fill="#A4B8D6"/>
<path d="M26.3758 48.8437C25.9924 48.8437 25.7624 48.537 25.7624 48.2303V41.5597C25.7624 41.1763 26.0691 40.9463 26.3758 40.9463C26.7592 40.9463 26.9892 41.253 26.9892 41.5597V48.2303C26.9892 48.537 26.6825 48.8437 26.3758 48.8437Z" fill="#A4B8D6"/>
<path d="M23.7689 54.2876C23.3855 54.2876 23.1555 54.5943 23.1555 54.901V57.7379C23.1555 58.1213 23.4622 58.3513 23.7689 58.3513C24.1523 58.3513 24.3823 58.0446 24.3823 57.7379V54.901C24.3823 54.5943 24.1523 54.2876 23.7689 54.2876Z" fill="#A4B8D6"/>
<path d="M26.3758 35.3496C25.9924 35.3496 25.7624 35.6563 25.7624 35.963V38.7999C25.7624 39.1833 26.0691 39.4133 26.3758 39.4133C26.7592 39.4133 26.9892 39.1066 26.9892 38.7999V35.963C26.9892 35.6563 26.6825 35.3496 26.3758 35.3496Z" fill="#B7FF95"/>
<path d="M26.3758 34.2753C25.9924 34.2753 25.7624 33.9686 25.7624 33.6619V21.9308C25.7624 21.5474 26.0691 21.3174 26.3758 21.3174C26.7592 21.3174 26.9892 21.6241 26.9892 21.9308V33.6619C26.9892 33.9686 26.6825 34.2753 26.3758 34.2753Z" fill="#A4B8D6"/>
<path d="M23.7689 36.8056C23.3855 36.8056 23.1555 36.4989 23.1555 36.1922V29.5216C23.1555 29.1382 23.4622 28.9082 23.7689 28.9082C24.1523 28.9082 24.3823 29.2149 24.3823 29.5216V36.1922C24.3823 36.4989 24.1523 36.8056 23.7689 36.8056Z" fill="#A4B8D6"/>
<path d="M26.3758 12.5771C25.9924 12.5771 25.7624 12.8838 25.7624 13.1905V16.0275C25.7624 16.4108 26.0691 16.6409 26.3758 16.6409C26.7592 16.6409 26.9892 16.3342 26.9892 16.0275V13.1905C26.9892 12.8072 26.6825 12.5771 26.3758 12.5771Z" fill="#B7FF95"/>
<path d="M23.7689 45.7002C23.3855 45.7002 23.1555 46.0069 23.1555 46.3136V52.3708C23.1555 52.7542 23.4622 52.9842 23.7689 52.9842C24.1523 52.9842 24.3823 52.6775 24.3823 52.3708V46.3136C24.3823 46.0069 24.1523 45.7002 23.7689 45.7002Z" fill="#B7FF95"/>
<path d="M18.6317 49.2266C18.2484 49.2266 18.0183 49.5333 18.0183 49.84V51.3734C18.0183 51.7568 18.325 51.9868 18.6317 51.9868C19.0151 51.9868 19.2451 51.6801 19.2451 51.3734V49.84C19.2451 49.5333 19.0151 49.2266 18.6317 49.2266Z" fill="#A4B8D6"/>
<path d="M21.2386 50.6836C20.8553 50.6836 20.6252 50.9903 20.6252 51.297V54.824C20.6252 55.2073 20.9319 55.4374 21.2386 55.4374C21.622 55.4374 21.852 55.1307 21.852 54.824V51.297C21.852 50.9136 21.5453 50.6836 21.2386 50.6836Z" fill="#B7FF95"/>
<defs>
<linearGradient id="paint0_linear_1821_220480" x1="25.5671" y1="92.654" x2="36.773" y2="76.8537" gradientUnits="userSpaceOnUse">
<stop stop-color="#93A5CF"/>
<stop offset="1" stop-color="#E4EFE9"/>
</linearGradient>
<linearGradient id="paint1_linear_1821_220480" x1="1.74393" y1="84.4932" x2="14.0541" y2="97.5091" gradientUnits="userSpaceOnUse">
<stop stop-color="#93A5CF"/>
<stop offset="1" stop-color="#E4EFE9"/>
</linearGradient>
<linearGradient id="paint2_linear_1821_220480" x1="3.29491" y1="85.7336" x2="15.9167" y2="59.5169" gradientUnits="userSpaceOnUse">
<stop stop-color="#93A5CF"/>
<stop offset="1" stop-color="#E4EFE9"/>
</linearGradient>
<linearGradient id="paint3_linear_1821_220480" x1="25.5671" y1="83.2191" x2="36.8294" y2="67.3991" gradientUnits="userSpaceOnUse">
<stop stop-color="#93A5CF"/>
<stop offset="1" stop-color="#E4EFE9"/>
</linearGradient>
<linearGradient id="paint4_linear_1821_220480" x1="1.74393" y1="75.0274" x2="14.1033" y2="88.0459" gradientUnits="userSpaceOnUse">
<stop stop-color="#93A5CF"/>
<stop offset="1" stop-color="#E4EFE9"/>
</linearGradient>
<linearGradient id="paint5_linear_1821_220480" x1="3.29491" y1="76.2987" x2="15.9738" y2="50.0366" gradientUnits="userSpaceOnUse">
<stop stop-color="#93A5CF"/>
<stop offset="1" stop-color="#E4EFE9"/>
</linearGradient>
<linearGradient id="paint6_linear_1821_220480" x1="25.5671" y1="73.7874" x2="36.8294" y2="57.9675" gradientUnits="userSpaceOnUse">
<stop stop-color="#93A5CF"/>
<stop offset="1" stop-color="#E4EFE9"/>
</linearGradient>
<linearGradient id="paint7_linear_1821_220480" x1="1.74393" y1="65.5958" x2="14.1033" y2="78.6143" gradientUnits="userSpaceOnUse">
<stop stop-color="#93A5CF"/>
<stop offset="1" stop-color="#E4EFE9"/>
</linearGradient>
<linearGradient id="paint8_linear_1821_220480" x1="3.29491" y1="66.8676" x2="15.9738" y2="40.6054" gradientUnits="userSpaceOnUse">
<stop stop-color="#93A5CF"/>
<stop offset="1" stop-color="#E4EFE9"/>
</linearGradient>
<linearGradient id="paint9_linear_1821_220480" x1="23.9222" y1="48.8864" x2="23.9222" y2="60.8814" gradientUnits="userSpaceOnUse">
<stop stop-color="#475876"/>
<stop offset="1" stop-color="#D9E9E2"/>
</linearGradient>
<linearGradient id="paint10_linear_1821_220480" x1="13.2041" y1="15.408" x2="19.5254" y2="2.02145" gradientUnits="userSpaceOnUse">
<stop stop-color="#93A5CF"/>
<stop offset="1" stop-color="#E4EFE9"/>
</linearGradient>
<linearGradient id="paint11_linear_1821_220480" x1="36.2667" y1="12.756" x2="32.499" y2="55.3689" gradientUnits="userSpaceOnUse">
<stop stop-color="#8CFF56" stop-opacity="0"/>
<stop offset="0.213542" stop-color="#B1FE87" stop-opacity="0.46"/>
<stop offset="0.348958" stop-color="#93FA84" stop-opacity="0.71"/>
<stop offset="0.46875" stop-color="#99CCC1"/>
<stop offset="0.6028" stop-color="#81C0CC"/>
<stop offset="0.7203" stop-color="#70B7D3"/>
<stop offset="0.8471" stop-color="#65B2D8"/>
<stop offset="1" stop-color="#62B0D9"/>
</linearGradient>
</defs>
</svg>
