<svg width="41" height="41" viewBox="0 0 41 41" fill="none" xmlns="http://www.w3.org/2000/svg">
<path d="M17.2056 2.9245C9.47656 2.9245 3.21094 9.19012 3.21094 16.9192C3.21094 24.6483 9.47656 30.9139 17.2056 30.9139C24.9347 30.9139 31.2003 24.6483 31.2003 16.9192C31.1919 9.19362 24.9312 2.93291 17.2056 2.9245ZM17.2056 4.25733C21.3221 4.26058 25.1795 6.26682 27.5457 9.63529L25.8797 11.3013C25.4742 11.056 25.0101 10.9247 24.5362 10.9215C23.064 10.9215 21.8705 12.1149 21.8705 13.5871C21.8729 14.0615 22.0034 14.5264 22.2484 14.9326L17.8847 19.2963C17.0584 18.7925 16.02 18.7925 15.1937 19.2963L12.1629 16.2654C12.4079 15.8593 12.5384 15.3944 12.5407 14.92C12.5426 13.4507 11.353 12.2581 9.88374 12.2563C8.66862 12.2548 7.60694 13.0767 7.30405 14.2535H4.83166C6.09343 8.42683 11.2439 4.26607 17.2056 4.25733ZM25.869 13.5871C25.869 14.3233 25.2723 14.92 24.5362 14.92C23.8 14.92 23.2034 14.3233 23.2034 13.5871C23.2034 12.851 23.8 12.2543 24.5362 12.2543C25.2723 12.2543 25.869 12.851 25.869 13.5871ZM17.872 21.5841C17.872 22.3202 17.2754 22.9169 16.5392 22.9169C15.8031 22.9169 15.2064 22.3202 15.2064 21.5841C15.2064 20.848 15.8031 20.2513 16.5392 20.2513C17.2754 20.2513 17.872 20.848 17.872 21.5841ZM11.2079 14.92C11.2079 15.6561 10.6112 16.2528 9.87508 16.2528C9.13894 16.2528 8.54225 15.6561 8.54225 14.92C8.54225 14.1838 9.13894 13.5871 9.87508 13.5871C10.6112 13.5871 11.2079 14.1838 11.2079 14.92ZM23.3578 27.9905C21.4758 29.0354 19.3583 29.5829 17.2056 29.581C10.2174 29.5857 4.54851 23.9246 4.54377 16.9364C4.54343 16.4854 4.56726 16.0347 4.61507 15.5863H7.30405C7.60702 16.7596 8.66329 17.5809 9.87508 17.5855C10.3495 17.5832 10.8144 17.4527 11.2206 17.2077L14.2514 20.2385C14.0064 20.6447 13.8759 21.1096 13.8736 21.584C13.8736 23.0562 15.067 24.2497 16.5392 24.2497C18.0114 24.2497 19.2049 23.0562 19.2049 21.584C19.2025 21.1096 19.072 20.6447 18.827 20.2385L23.1907 15.8748C23.5969 16.1198 24.0618 16.2504 24.5362 16.2527C26.0084 16.2527 27.2018 15.0592 27.2018 13.587C27.1995 13.1126 27.069 12.6477 26.824 12.2415L28.2768 10.7894C31.6684 16.8978 29.4661 24.5989 23.3578 27.9905Z" fill="#879C33"/>
<path d="M33.8661 6.92296C35.0779 6.91838 36.1342 6.09711 36.4371 4.92372H40.5302V3.59089H36.4371C36.1342 2.41751 35.0779 1.59623 33.8661 1.59165C32.3939 1.59165 31.2005 2.78512 31.2005 4.25731C31.2028 4.73171 31.3333 5.19662 31.5783 5.6028L30.4074 6.77369C24.805 -0.525296 14.3463 -1.90061 7.04728 3.70185C-0.251706 9.30431 -1.62702 19.7631 3.97544 27.0621C9.26377 33.9517 18.9577 35.623 26.2477 30.9019L28.2589 32.9131L29.2012 33.8554L34.5658 39.2201C35.9302 40.5845 38.1422 40.5845 39.5066 39.2201C40.871 37.8557 40.871 35.6437 39.5066 34.2793L34.142 28.9146L33.1997 27.9723L31.1885 25.9611C34.7587 20.4618 34.7587 13.3766 31.1885 7.87727L32.5213 6.54444C32.9272 6.78951 33.392 6.9203 33.8661 6.92296ZM33.8661 2.92448C34.6022 2.92448 35.1989 3.52117 35.1989 4.25731C35.1989 4.99345 34.6022 5.59014 33.8661 5.59014C33.13 5.59014 32.5333 4.99345 32.5333 4.25731C32.5333 3.52117 33.1301 2.92448 33.8661 2.92448ZM38.5643 35.2216C39.4178 36.0559 39.4334 37.4242 38.5991 38.2777C37.7647 39.1313 36.3964 39.1468 35.5429 38.3125C35.5311 38.3011 35.5196 38.2895 35.5082 38.2777L30.1435 32.9131L33.1997 29.8569L38.5643 35.2216ZM32.2574 28.9146L29.2012 31.9708L27.3566 30.1262C27.4505 30.0542 27.5385 29.9749 27.6311 29.9009C27.7238 29.827 27.8311 29.7383 27.9304 29.655C28.0763 29.5324 28.2202 29.4084 28.3615 29.2812C28.4342 29.2145 28.5035 29.1479 28.5748 29.0812C28.848 28.8253 29.1126 28.5608 29.3685 28.2875C29.4351 28.2162 29.5018 28.1469 29.5684 28.0743C29.6957 27.933 29.8196 27.7891 29.9423 27.6431C30.0258 27.5445 30.1078 27.4448 30.1882 27.3439C30.2615 27.2519 30.3408 27.164 30.4128 27.07L32.2574 28.9146ZM29.673 25.8191C29.4631 26.1124 29.2465 26.3996 29.0179 26.6761C28.9513 26.7568 28.88 26.8347 28.8114 26.9141C28.6074 27.1513 28.3968 27.3815 28.1796 27.6045C28.085 27.7022 27.9888 27.7984 27.891 27.893C27.6689 28.1103 27.4388 28.3209 27.2006 28.5248C27.1213 28.5914 27.0434 28.6641 26.9627 28.7314C26.6862 28.9599 26.3989 29.1765 26.1057 29.3864C19.207 34.315 9.61905 32.7179 4.6905 25.8191C-0.238044 18.9204 1.3591 9.33247 8.25782 4.40392C15.1565 -0.524629 24.7445 1.07243 29.673 7.97123C33.4867 13.3094 33.4867 20.481 29.673 25.8191Z" fill="#879C33"/>
</svg>
