<svg width="16" height="16" viewBox="0 0 16 16"  xmlns="http://www.w3.org/2000/svg">
<g id="clarity:arrow-line">
<path id="Vector" d="M11.7708 10.2963L11.7551 4.24028L5.69914 4.22457C5.63604 4.21603 5.57185 4.22114 5.51091 4.23956C5.44996 4.25799 5.39368 4.28929 5.34589 4.33135C5.29809 4.37342 5.25989 4.42526 5.23387 4.48337C5.20785 4.54148 5.19462 4.6045 5.19507 4.66817C5.19553 4.73184 5.20966 4.79467 5.2365 4.8524C5.26335 4.91013 5.30229 4.96142 5.35068 5.0028C5.39907 5.04418 5.45579 5.07467 5.517 5.09222C5.5782 5.10977 5.64246 5.11397 5.70542 5.10453L10.2435 5.12338L4.2315 11.1354C4.14815 11.2187 4.10132 11.3318 4.10132 11.4496C4.10132 11.5675 4.14815 11.6806 4.2315 11.7639C4.31485 11.8472 4.4279 11.8941 4.54577 11.8941C4.66364 11.8941 4.77669 11.8472 4.86004 11.7639L10.872 5.75192L10.8909 10.29C10.8913 10.4079 10.9385 10.5209 11.0222 10.604C11.1059 10.6871 11.2192 10.7335 11.3371 10.7331C11.4551 10.7327 11.568 10.6854 11.6511 10.6017C11.7342 10.518 11.7807 10.4048 11.7803 10.2868L11.7708 10.2963Z" />
</g>
</svg>
