<svg width="24" height="24" viewBox="0 0 24 24"  xmlns="http://www.w3.org/2000/svg">
<g id="arrow-right">
<path id="Vector" d="M16.6929 11.4571L8.33339 3.49205C8.1939 3.35909 8.00859 3.28491 7.81589 3.28491C7.62318 3.28491 7.43787 3.35909 7.29839 3.49205L7.28939 3.50105C7.22153 3.56551 7.1675 3.6431 7.13058 3.7291C7.09366 3.8151 7.07462 3.90771 7.07462 4.0013C7.07462 4.09489 7.09366 4.18751 7.13058 4.27351C7.1675 4.35951 7.22153 4.43709 7.28939 4.50155L15.1614 12.0016L7.28939 19.4986C7.22153 19.563 7.1675 19.6406 7.13058 19.7266C7.09366 19.8126 7.07462 19.9052 7.07462 19.9988C7.07462 20.0924 7.09366 20.185 7.13058 20.271C7.1675 20.357 7.22153 20.4346 7.28939 20.4991L7.29839 20.5081C7.43787 20.641 7.62318 20.7152 7.81589 20.7152C8.00859 20.7152 8.1939 20.641 8.33339 20.5081L16.6929 12.5431C16.7664 12.473 16.8249 12.3888 16.8649 12.2954C16.9049 12.2021 16.9255 12.1016 16.9255 12.0001C16.9255 11.8985 16.9049 11.798 16.8649 11.7047C16.8249 11.6113 16.7664 11.5271 16.6929 11.4571Z" />
</g>
</svg>
