<svg width="40" height="40" viewBox="0 0 40 40" fill="none" xmlns="http://www.w3.org/2000/svg">
<g id="material-symbols:check-box-outline">
<path id="Vector" d="M17.6667 27L29.4167 15.25L27.0833 12.9167L17.6667 22.3333L12.9167 17.5833L10.5833 19.9167L17.6667 27ZM8.33333 35C7.41667 35 6.63222 34.6739 5.98 34.0217C5.32778 33.3694 5.00111 32.5844 5 31.6667V8.33333C5 7.41667 5.32667 6.63222 5.98 5.98C6.63333 5.32778 7.41778 5.00111 8.33333 5H31.6667C32.5833 5 33.3683 5.32667 34.0217 5.98C34.675 6.63333 35.0011 7.41778 35 8.33333V31.6667C35 32.5833 34.6739 33.3683 34.0217 34.0217C33.3694 34.675 32.5844 35.0011 31.6667 35H8.33333ZM8.33333 31.6667H31.6667V8.33333H8.33333V31.6667Z" fill="#25C796"/>
</g>
</svg>
