<svg width="48" height="49" viewBox="0 0 48 49" fill="none" xmlns="http://www.w3.org/2000/svg">
<ellipse cx="25.1119" cy="25.5373" rx="22.888" ry="22.7126" fill="#060606"/>
<path d="M44.7434 22.9626C44.7434 34.9287 34.9659 44.6426 22.888 44.6426C10.8102 44.6426 1.0327 34.9287 1.0327 22.9626C1.0327 10.9966 10.8102 1.2827 22.888 1.2827C34.9659 1.2827 44.7434 10.9966 44.7434 22.9626Z" fill="#D6EF72" stroke="#060606" stroke-width="2.0654"/>
<path d="M37.2511 17.0186C37.2511 16.957 37.2511 16.957 37.2511 16.8955V16.8339C37.2511 16.7724 37.2511 16.7724 37.1899 16.7724C37.1899 16.7724 37.1899 16.7724 37.1899 16.7108C37.1899 16.6493 37.1287 16.6493 37.1287 16.5877C37.0675 16.5262 37.0675 16.5262 37.0063 16.4647L32.7219 12.9566C32.6607 12.9566 32.6607 12.895 32.5995 12.895C32.5995 12.895 32.5994 12.895 32.5382 12.895C32.5382 12.8335 32.477 12.8335 32.4158 12.8335C32.3546 12.8335 32.2934 12.8335 32.2934 12.8335H32.2322C32.2322 12.8335 32.2322 12.8335 32.171 12.8335L11.3611 18.1264C11.2999 18.1264 11.2999 18.1264 11.2387 18.1879C11.1775 18.1879 11.1163 18.2495 11.1163 18.311C11.1163 18.311 11.1163 18.311 11.0551 18.311C10.9938 18.3726 10.9326 18.3726 10.9326 18.4341C10.9326 18.4956 10.8714 18.5572 10.8714 18.6187C10.8714 18.6187 10.8714 18.6187 10.8714 18.6803C10.8714 18.7418 10.8714 18.8034 10.8714 18.8034L10.749 23.2962C10.749 23.2962 10.749 23.2962 10.749 23.3577V23.4192V23.4808V23.5423V23.6039C10.749 23.6039 10.749 23.6654 10.8102 23.6654C10.8102 23.6654 10.8102 23.727 10.8714 23.727L10.9326 23.7885C10.9326 23.7885 10.9326 23.8501 10.9938 23.8501L11.0551 23.9116C11.7895 24.5271 13.6257 26.3734 13.5645 27.8505C13.5645 29.3276 13.5033 31.6663 13.5033 31.7278C13.5033 31.9125 13.5645 32.1586 13.7481 32.2817L17.6041 35.5436C17.6041 35.5436 17.6653 35.5436 17.6653 35.6052C17.6653 35.6052 17.6653 35.6052 17.7265 35.6052C17.7265 35.6052 17.7877 35.6052 17.7877 35.6667C17.7877 35.6667 17.7877 35.6667 17.8489 35.6667H17.9101C17.9713 35.6667 17.9713 35.6667 18.0325 35.6667C18.0937 35.6667 18.1549 35.6667 18.2161 35.6667L22.4393 34.5589C22.7453 34.4974 22.929 34.1896 22.929 33.8819L22.9902 27.5428C22.9902 27.3581 23.1126 25.8195 24.3979 24.8963C25.3772 25.081 25.3772 26.0041 25.3772 26.2503V26.3119V28.7121C25.3772 28.8968 25.4384 29.1429 25.622 29.266L29.4168 32.4664C29.4168 32.4664 29.4168 32.4664 29.478 32.5279C29.478 32.5279 29.5392 32.5279 29.5392 32.5895H29.6004H29.6616H29.7228C29.784 32.5895 29.784 32.5895 29.8452 32.5895C29.9064 32.5895 29.9676 32.5895 30.0288 32.5895L34.1908 31.5432C34.4968 31.4816 34.7416 31.1739 34.7416 30.8662L34.8029 24.7732C34.8029 24.5886 34.8641 23.05 36.7002 22.2499C36.7614 22.2499 36.8226 22.2499 36.8226 22.1883C37.0675 22.0653 37.1899 21.8191 37.1899 21.5729L37.2511 17.0186ZM15.9515 21.5729L13.0136 19.1726L31.6202 14.4337L31.559 17.5725L15.9515 21.5729ZM12.1568 22.9884L12.218 20.2804L15.0946 22.6807L15.0334 25.3271L12.1568 22.9884ZM32.9667 14.9876L35.0477 16.7108L32.9667 17.2647V14.9876ZM35.9046 17.9417V20.0958L33.8848 18.4956L35.9046 17.9417ZM14.911 27.0504L15.2782 27.3581C15.2782 27.3581 15.2782 27.3581 15.3394 27.3581C15.3394 27.3581 15.4007 27.3581 15.4007 27.4197H15.4619H15.5231C16.1351 27.6043 17.298 28.4044 17.3592 29.3891L17.298 33.3895L14.8498 31.297C14.8498 30.5585 14.911 28.8968 14.911 27.7889C14.9722 27.5428 14.9722 27.2966 14.911 27.0504ZM26.2341 24.3424C26.1729 24.2809 26.1729 24.2193 26.1116 24.1578C26.9073 24.0347 27.5806 24.2193 28.0702 24.6501C29.0495 25.5118 29.1719 27.112 29.2331 27.2966L29.1719 30.3738L26.7237 28.3429V26.3119C26.7849 26.0657 26.8461 25.1425 26.2341 24.3424ZM33.3951 24.7117L33.3339 30.3123L30.5185 30.9893L30.5797 27.2966C30.5797 27.2966 30.5797 27.2966 30.5797 27.235C30.5797 27.1119 30.4573 24.8348 28.9271 23.5423C28.1314 22.8653 27.0909 22.6192 25.8668 22.7423C22.6229 23.1731 21.6436 25.9426 21.5824 27.3581L21.5212 33.2049L18.7058 33.9435L18.767 29.3276C18.767 29.3276 18.767 29.3276 18.767 29.266C18.7058 27.7889 17.4816 26.6196 16.3799 26.1888L16.4412 22.7423L32.1098 18.7418L35.2925 21.2652C33.5787 22.6192 33.4563 24.3424 33.3951 24.7117Z" fill="#060606"/>
</svg>
