<svg width="48" height="49" viewBox="0 0 48 49" fill="none" xmlns="http://www.w3.org/2000/svg">
<ellipse cx="25.1122" cy="25.5373" rx="22.888" ry="22.7126" fill="#060606"/>
<path d="M44.7434 22.9626C44.7434 34.9287 34.9659 44.6426 22.888 44.6426C10.8102 44.6426 1.0327 34.9287 1.0327 22.9626C1.0327 10.9966 10.8102 1.2827 22.888 1.2827C34.9659 1.2827 44.7434 10.9966 44.7434 22.9626Z" fill="#9DD0FF" stroke="#060606" stroke-width="2.0654"/>
<path d="M28.4397 26.5863C28.4397 24.25 27.0271 23.449 24.2018 23.1153C22.1837 22.8482 21.7801 22.3142 21.7801 21.3796C21.7801 20.4449 22.4529 19.8443 23.7982 19.8443C25.009 19.8443 25.6818 20.2448 26.0181 21.2461C26.0854 21.4464 26.2872 21.5799 26.489 21.5799H27.5652C27.8343 21.5799 28.0361 21.3796 28.0361 21.1127V21.0459C27.767 19.5773 26.5561 18.4425 25.009 18.3091V16.707C25.009 16.4399 24.8072 16.2397 24.4709 16.1729H23.4619C23.1928 16.1729 22.991 16.3731 22.9236 16.707V18.2423C20.9056 18.5093 19.6276 19.8443 19.6276 21.5132C19.6276 23.7161 20.9729 24.5837 23.7982 24.9176C25.6818 25.2513 26.2872 25.6519 26.2872 26.72C26.2872 27.7881 25.3453 28.5223 24.0673 28.5223C22.3182 28.5223 21.7128 27.7879 21.511 26.7866C21.4438 26.5197 21.242 26.3861 21.0402 26.3861H19.8966C19.6276 26.3861 19.4258 26.5863 19.4258 26.8534V26.9202C19.6947 28.5889 20.7711 29.7905 22.991 30.1244V31.7264C22.991 31.9933 23.1928 32.1936 23.5291 32.2604H24.5381C24.8072 32.2604 25.009 32.0602 25.0763 31.7264V30.1244C27.0944 29.7905 28.4397 28.3887 28.4397 26.5863Z" fill="#060606"/>
<path d="M20.5694 33.5953C15.3224 31.7263 12.6316 25.9188 14.5825 20.7787C15.5916 17.9751 17.8114 15.839 20.5694 14.8377C20.8385 14.7043 20.973 14.504 20.973 14.1701V13.2356C20.973 12.9686 20.8385 12.7683 20.5694 12.7017C20.5021 12.7017 20.3676 12.7017 20.3003 12.7683C13.9098 14.7709 10.4118 21.5131 12.4298 27.8546C13.6407 31.5927 16.5333 34.4631 20.3003 35.6647C20.5694 35.7981 20.8385 35.6647 20.9057 35.3976C20.973 35.331 20.973 35.2642 20.973 35.1307V34.1961C20.973 33.9958 20.7712 33.7289 20.5694 33.5953ZM27.6999 12.7683C27.4308 12.6349 27.1616 12.7683 27.0945 13.0354C27.0272 13.1022 27.0272 13.1688 27.0272 13.3024V14.2369C27.0272 14.504 27.229 14.7709 27.4308 14.9045C32.6777 16.7735 35.3685 22.581 33.4176 27.7211C32.4086 30.5247 30.1887 32.6608 27.4308 33.6621C27.1616 33.7955 27.0272 33.9958 27.0272 34.3297V35.2642C27.0272 35.5312 27.1616 35.7315 27.4308 35.7981C27.4981 35.7981 27.6326 35.7981 27.6999 35.7315C34.0904 33.7289 37.5884 26.9867 35.5703 20.6452C34.3595 16.8403 31.3996 13.9699 27.6999 12.7683Z" fill="#060606"/>
</svg>
