<svg width="17" height="17" viewBox="0 0 17 17"  xmlns="http://www.w3.org/2000/svg">
<g id="collapse">
<g id="Group">
<path id="Vector" d="M6.39274 1.3786C6.08071 1.3786 5.79383 1.63154 5.79383 1.94377V5.58694L1.28762 0.985911C1.06682 0.765113 0.756389 0.765113 0.535791 0.985911C0.314992 1.20651 0.338749 1.56586 0.559547 1.78646L5.21967 6.42482H1.50503C1.193 6.42482 0.939856 6.7115 0.939856 7.02373C0.939856 7.33596 1.193 7.62264 1.50503 7.62264H5.98328C6.60655 7.62264 6.99165 7.04509 6.99165 6.42182V1.94357C6.99165 1.63154 6.70477 1.3786 6.39274 1.3786Z" />
<path id="Vector_2" d="M11.5795 11.2164H15.2943C15.6064 11.2164 15.8595 10.9297 15.8595 10.6175C15.8595 10.3052 15.6064 10.0186 15.2943 10.0186H10.8161C10.1928 10.0186 9.58691 10.5961 9.58691 11.2194V15.6976C9.58691 16.0099 9.87379 16.2628 10.1858 16.2628C10.4981 16.2628 10.7847 16.0099 10.7847 15.6976V12.0543L15.4013 16.6551C15.5117 16.7655 15.6643 16.8206 15.8088 16.8206C15.9535 16.8206 16.1021 16.7655 16.2125 16.6551C16.4333 16.4345 16.4351 16.0751 16.2145 15.8545L11.5795 11.2164Z" />
</g>
</g>
</svg>
