<svg width="25" height="24" viewBox="0 0 25 24" fill="none" xmlns="http://www.w3.org/2000/svg">
<path d="M14.5 7.99902H4.5C3.397 7.99902 2.5 8.89602 2.5 9.99902V19.999C2.5 21.102 3.397 21.999 4.5 21.999H14.5C15.603 21.999 16.5 21.102 16.5 19.999V9.99902C16.5 8.89602 15.603 7.99902 14.5 7.99902Z" fill="#000"/>
<path d="M20.5 1.99902H10.5C9.96957 1.99902 9.46086 2.20974 9.08579 2.58481C8.71071 2.95988 8.5 3.46859 8.5 3.99902V5.99902H16.5C17.0304 5.99902 17.5391 6.20974 17.9142 6.58481C18.2893 6.95988 18.5 7.46859 18.5 7.99902V15.999H20.5C21.0304 15.999 21.5391 15.7883 21.9142 15.4132C22.2893 15.0382 22.5 14.5295 22.5 13.999V3.99902C22.5 3.46859 22.2893 2.95988 21.9142 2.58481C21.5391 2.20974 21.0304 1.99902 20.5 1.99902Z" fill="#000"/>
</svg>
