<svg width="24" height="24" viewBox="0 0 24 24" fill="none" xmlns="http://www.w3.org/2000/svg">
<path fill-rule="evenodd" clip-rule="evenodd" d="M18.9717 5.08059C19.2335 5.25516 19.4152 5.52657 19.477 5.83512C19.5387 6.14368 19.4753 6.46412 19.3008 6.72595L11.3904 18.5915C11.293 18.7374 11.1644 18.8599 11.0139 18.9502C10.8634 19.0405 10.6948 19.0962 10.5202 19.1135C10.3456 19.1307 10.1693 19.109 10.0041 19.05C9.83884 18.9909 9.68878 18.8959 9.56468 18.7719L4.81846 14.0256C4.60887 13.8007 4.49476 13.5032 4.50018 13.1958C4.50561 12.8884 4.63014 12.5951 4.84753 12.3777C5.06493 12.1603 5.35822 12.0358 5.66562 12.0304C5.97302 12.0249 6.27052 12.139 6.49546 12.3486L10.2181 16.0713L17.3263 5.40808C17.5011 5.14653 17.7727 4.9651 18.0812 4.90369C18.3897 4.84228 18.71 4.90591 18.9717 5.08059Z" fill="#000"/>
</svg>
