<svg width="18" height="14" viewBox="0 0 18 14" xmlns="http://www.w3.org/2000/svg">
<path d="M14.8144 1.08858C13.6988 0.585468 12.503 0.213603 11.2525 0.0021511C11.2414 1.31843e-05 11.2299 0.00139094 11.2195 0.00609383C11.2092 0.0107967 11.2006 0.0185921 11.1949 0.0284004C11.0418 0.297455 10.8712 0.648174 10.7516 0.92525C9.42536 0.727095 8.07703 0.727095 6.75078 0.92525C6.61759 0.618178 6.4674 0.318764 6.3009 0.0284004C6.29525 0.0184714 6.28672 0.0104996 6.27642 0.00554901C6.26613 0.000598384 6.25458 -0.00109577 6.2433 0.000692742C4.99354 0.212145 3.79774 0.584009 2.68142 1.08785C2.67181 1.09188 2.66367 1.09875 2.65809 1.10754C0.388985 4.44338 -0.232976 7.69683 0.0725359 10.9094C0.073386 10.9173 0.0758283 10.9249 0.0797142 10.9318C0.0836001 10.9387 0.0888483 10.9447 0.0951394 10.9495C1.41955 11.9138 2.89676 12.6483 4.46491 13.1224C4.47584 13.1258 4.48753 13.1258 4.49846 13.1224C4.50939 13.119 4.51904 13.1124 4.52616 13.1034C4.8636 12.6522 5.16263 12.1734 5.42009 11.6721C5.42366 11.6653 5.42572 11.6577 5.42613 11.65C5.42653 11.6423 5.42528 11.6346 5.42244 11.6274C5.41961 11.6202 5.41526 11.6137 5.4097 11.6083C5.40413 11.603 5.39748 11.5989 5.39019 11.5963C4.91917 11.4189 4.46278 11.2049 4.02523 10.9561C4.01737 10.9516 4.01075 10.9452 4.00595 10.9376C4.00116 10.9299 3.99835 10.9211 3.99777 10.9121C3.99719 10.9031 3.99887 10.894 4.00264 10.8858C4.00642 10.8776 4.01218 10.8704 4.0194 10.865C4.11127 10.7972 4.20315 10.7264 4.29064 10.6557C4.29852 10.6493 4.30801 10.6453 4.31805 10.644C4.32809 10.6427 4.33829 10.6442 4.34752 10.6484C7.21087 11.9346 10.3119 11.9346 13.1417 10.6484C13.151 10.644 13.1613 10.6423 13.1715 10.6434C13.1817 10.6446 13.1913 10.6486 13.1993 10.655C13.2868 10.7264 13.378 10.7972 13.4706 10.865C13.4779 10.8703 13.4837 10.8774 13.4876 10.8855C13.4915 10.8937 13.4933 10.9027 13.4929 10.9117C13.4925 10.9207 13.4898 10.9295 13.4851 10.9373C13.4805 10.945 13.474 10.9515 13.4662 10.9561C13.0302 11.2069 12.5767 11.4191 12.1005 11.5956C12.0932 11.5982 12.0865 11.6024 12.081 11.6078C12.0754 11.6133 12.0711 11.6198 12.0682 11.6271C12.0654 11.6343 12.0642 11.6421 12.0646 11.6499C12.065 11.6576 12.067 11.6652 12.0706 11.6721C12.3331 12.1731 12.6335 12.6499 12.9638 13.1027C12.9707 13.112 12.9803 13.1189 12.9912 13.1226C13.0022 13.1263 13.014 13.1264 13.0251 13.1231C14.5959 12.6504 16.0755 11.9155 17.4014 10.9495C17.4079 10.945 17.4133 10.9392 17.4173 10.9324C17.4214 10.9256 17.4239 10.918 17.4247 10.9102C17.7893 7.1959 16.8137 3.9687 14.837 1.10899C14.8322 1.0997 14.8241 1.09246 14.8144 1.08858ZM5.8481 8.95314C4.98625 8.95314 4.27533 8.17369 4.27533 7.21778C4.27533 6.26114 4.97239 5.48241 5.8481 5.48241C6.73036 5.48241 7.43472 6.2677 7.42087 7.21778C7.42087 8.17442 6.7238 8.95314 5.8481 8.95314ZM11.663 8.95314C10.8005 8.95314 10.0903 8.17369 10.0903 7.21778C10.0903 6.26114 10.7866 5.48241 11.663 5.48241C12.5453 5.48241 13.2497 6.2677 13.2358 7.21778C13.2358 8.17442 12.546 8.95314 11.663 8.95314Z" />
</svg>
