<svg width="16" height="15" viewBox="0 0 16 15" fill="none" xmlns="http://www.w3.org/2000/svg">
<path d="M6.82867 10.3767L4 7.54742L4.94267 6.60475L6.82867 8.49008L10.5993 4.71875L11.5427 5.66208L6.82867 10.3767Z" fill="#31D788"/>
<path fill-rule="evenodd" clip-rule="evenodd" d="M0.666626 7.50033C0.666626 3.45033 3.94996 0.166992 7.99996 0.166992C12.05 0.166992 15.3333 3.45033 15.3333 7.50033C15.3333 11.5503 12.05 14.8337 7.99996 14.8337C3.94996 14.8337 0.666626 11.5503 0.666626 7.50033ZM7.99996 13.5003C7.21203 13.5003 6.43181 13.3451 5.70386 13.0436C4.97591 12.7421 4.31447 12.3001 3.75732 11.743C3.20017 11.1858 2.75821 10.5244 2.45668 9.79643C2.15515 9.06847 1.99996 8.28826 1.99996 7.50033C1.99996 6.71239 2.15515 5.93218 2.45668 5.20423C2.75821 4.47627 3.20017 3.81484 3.75732 3.25768C4.31447 2.70053 4.97591 2.25858 5.70386 1.95705C6.43181 1.65552 7.21203 1.50033 7.99996 1.50033C9.59126 1.50033 11.1174 2.13247 12.2426 3.25768C13.3678 4.3829 14 5.90903 14 7.50033C14 9.09162 13.3678 10.6177 12.2426 11.743C11.1174 12.8682 9.59126 13.5003 7.99996 13.5003Z" fill="#31D788"/>
</svg>
