<svg width="17" height="17" viewBox="0 0 17 17"  xmlns="http://www.w3.org/2000/svg">
<g id="expand">
<g id="Group">
<path id="Vector" d="M0.378906 1.5852V6.081C0.378906 6.3944 0.665506 6.6484 0.978906 6.6484C1.29231 6.6484 1.57891 6.3944 1.57891 6.081V2.4234L6.22331 7.0424C6.33411 7.1532 6.49191 7.2086 6.63711 7.2086C6.78231 7.2086 6.93391 7.1532 7.04471 7.0424C7.26631 6.8208 7.26931 6.419 7.04791 6.1976L2.39571 1.5H6.12511C6.43851 1.5 6.69251 1.3134 6.69251 1C6.69251 0.6866 6.43851 0.5 6.12531 0.5H1.62931C1.00371 0.5 0.378906 0.9594 0.378906 1.5852Z" />
<path id="Vector_2" d="M14.6206 15.5005H10.8912C10.5778 15.5005 10.3238 15.6871 10.3238 16.0005C10.3238 16.3139 10.5778 16.5005 10.8912 16.5005H15.3872C16.0128 16.5005 16.3788 16.0051 16.3788 15.3793V10.8835C16.3788 10.5701 16.1922 10.3161 15.8788 10.3161C15.5654 10.3161 15.3788 10.5701 15.3788 10.8835V14.5411L10.764 9.92206C10.5424 9.70046 10.1852 9.70046 9.96355 9.92206C9.74195 10.1437 9.74295 10.5635 9.96455 10.7849L14.6206 15.5005Z" />
</g>
</g>
</svg>
