<svg width="16" height="13" viewBox="0 0 16 13" xmlns="http://www.w3.org/2000/svg">
<path d="M1.85313 2.55C1.8627 2.45489 1.84988 2.35887 1.81569 2.26961C1.78151 2.18034 1.7269 2.10032 1.65625 2.03594L0.196875 0.264844V0H4.72656L8.22813 7.73828L11.3063 0H15.625V0.264844L14.3773 1.46875C14.3245 1.50957 14.2837 1.56398 14.2593 1.62617C14.235 1.68837 14.228 1.75601 14.2391 1.82187V10.6766C14.228 10.7424 14.235 10.8101 14.2593 10.8723C14.2837 10.9345 14.3245 10.9889 14.3773 11.0297L15.5961 12.2344V12.5H9.46797V12.2352L10.7305 11.0008C10.8547 10.8758 10.8547 10.8391 10.8547 10.6484V3.49063L7.34531 12.4703H6.87188L2.78594 3.49063V9.50938C2.75234 9.76172 2.83594 10.0172 3.0125 10.2L4.65391 12.2063V12.4703H0V12.2063L1.64063 10.2C1.72743 10.1094 1.79186 9.99979 1.82875 9.87988C1.86565 9.75997 1.874 9.63309 1.85313 9.50938V2.55Z" />
</svg>
