<svg width="17" height="16" viewBox="0 0 17 16"  xmlns="http://www.w3.org/2000/svg">
<g id="ph:question">
<path id="Vector" d="M9.17676 11.25C9.17676 11.3983 9.13277 11.5433 9.05036 11.6667C8.96795 11.79 8.85082 11.8861 8.71377 11.9429C8.57673 11.9997 8.42593 12.0145 8.28044 11.9856C8.13496 11.9566 8.00132 11.8852 7.89643 11.7803C7.79154 11.6754 7.72011 11.5418 7.69117 11.3963C7.66223 11.2508 7.67709 11.1 7.73385 10.963C7.79062 10.8259 7.88675 10.7088 8.01008 10.6264C8.13342 10.544 8.27842 10.5 8.42676 10.5C8.62567 10.5 8.81644 10.579 8.95709 10.7197C9.09774 10.8603 9.17676 11.0511 9.17676 11.25ZM8.42676 4.5C7.04801 4.5 5.92676 5.50938 5.92676 6.75V7C5.92676 7.13261 5.97944 7.25979 6.07321 7.35355C6.16698 7.44732 6.29415 7.5 6.42676 7.5C6.55937 7.5 6.68655 7.44732 6.78031 7.35355C6.87408 7.25979 6.92676 7.13261 6.92676 7V6.75C6.92676 6.0625 7.59989 5.5 8.42676 5.5C9.25364 5.5 9.92676 6.0625 9.92676 6.75C9.92676 7.4375 9.25364 8 8.42676 8C8.29415 8 8.16698 8.05268 8.07321 8.14645C7.97944 8.24021 7.92676 8.36739 7.92676 8.5V9C7.92676 9.13261 7.97944 9.25979 8.07321 9.35355C8.16698 9.44732 8.29415 9.5 8.42676 9.5C8.55937 9.5 8.68655 9.44732 8.78031 9.35355C8.87408 9.25979 8.92676 9.13261 8.92676 9V8.955C10.0668 8.74563 10.9268 7.83625 10.9268 6.75C10.9268 5.50938 9.80551 4.5 8.42676 4.5ZM14.9268 8C14.9268 9.28558 14.5455 10.5423 13.8313 11.6112C13.1171 12.6801 12.1019 13.5132 10.9142 14.0052C9.72648 14.4972 8.41955 14.6259 7.15867 14.3751C5.8978 14.1243 4.73961 13.5052 3.83057 12.5962C2.92153 11.6872 2.30246 10.529 2.05166 9.26809C1.80085 8.00721 1.92957 6.70028 2.42154 5.51256C2.91351 4.32484 3.74663 3.30968 4.81555 2.59545C5.88447 1.88122 7.14118 1.5 8.42676 1.5C10.1501 1.50182 11.8024 2.18722 13.0209 3.40582C14.2395 4.62441 14.9249 6.27665 14.9268 8ZM13.9268 8C13.9268 6.9122 13.6042 5.84883 12.9998 4.94436C12.3955 4.03989 11.5365 3.33494 10.5315 2.91866C9.52653 2.50238 8.42066 2.39346 7.35376 2.60568C6.28687 2.8179 5.30686 3.34172 4.53767 4.11091C3.76848 4.8801 3.24466 5.86011 3.03244 6.927C2.82022 7.9939 2.92914 9.09977 3.34542 10.1048C3.76171 11.1098 4.46665 11.9687 5.37112 12.5731C6.27559 13.1774 7.33896 13.5 8.42676 13.5C9.88494 13.4983 11.2829 12.9184 12.314 11.8873C13.3451 10.8562 13.9251 9.45818 13.9268 8Z" />
</g>
</svg>
