<svg width="16" height="17" viewBox="0 0 16 17" fill="none" xmlns="http://www.w3.org/2000/svg">
<g id="mdi:question-box-outline" clip-path="url(#clip0_3234_13917)">
<path id="Vector" d="M7.11111 13.8333H8.88889V12.0556H7.11111V13.8333ZM8 3.16667C6.04444 3.16667 4.44444 4.76667 4.44444 6.72222H6.22222C6.22222 5.74444 7.02222 4.94444 8 4.94444C8.97778 4.94444 9.77778 5.74444 9.77778 6.72222C9.77778 8.5 7.11111 8.32222 7.11111 11.1667H8.88889C8.88889 9.21111 11.5556 8.94444 11.5556 6.72222C11.5556 4.76667 9.95556 3.16667 8 3.16667ZM14.2222 2.27778V14.7222H1.77778V2.27778H14.2222ZM14.2222 0.5H1.77778C0.8 0.5 0 1.3 0 2.27778V14.7222C0 15.7 0.8 16.5 1.77778 16.5H14.2222C15.2 16.5 16 15.7 16 14.7222V2.27778C16 1.3 15.2 0.5 14.2222 0.5Z" fill="#060606"/>
</g>
<defs>
<clipPath id="clip0_3234_13917">
<rect width="16" height="16" fill="white" transform="translate(0 0.5)"/>
</clipPath>
</defs>
</svg>
