<svg width="326" height="36" viewBox="0 0 326 36" fill="none" xmlns="http://www.w3.org/2000/svg">
<path d="M5.72294 9.37147L0.433972 17.7514C0.0963782 18.2349 0.377706 18.6646 0.996628 18.6646H4.4851C5.10402 18.6646 5.44161 19.0944 5.21655 19.6853L2.6846 26.5612C2.45953 27.0983 2.57207 27.1521 2.90966 26.6686L9.49274 17.1605C9.83033 16.6771 9.60527 16.2473 8.98635 16.2473H4.76642C4.1475 16.2473 3.80991 15.7639 3.97871 15.2267L5.948 9.4789C6.1168 8.88801 6.00427 8.83429 5.72294 9.37147Z" fill="#060606"/>
<path d="M50.3215 9.612H52.0975V18.492H59.2495V9.612H60.9775V29.172H59.2495V20.244H52.0975V29.172H50.3215V9.612ZM63.8335 26.172H62.3215V18.492H63.8335V17.028H65.3215V15.54H70.0255V17.028H71.4895V18.492H72.9775V23.22H64.0975V25.932H65.5615V27.396H69.7615V25.932H71.2495V24.444H72.9775V26.172H71.4895V27.66H70.0255V29.172H65.3215V27.66H63.8335V26.172ZM71.2495 21.468V18.756H69.7615V17.268H65.5615V18.756H64.0975V21.468H71.2495ZM78.7615 11.076H80.5135V29.172H78.7615V11.076ZM90.7615 11.076H92.5135V29.172H90.7615V11.076ZM99.8335 26.172H98.3215V18.492H99.8335V17.028H101.322V15.54H106.026V17.028H107.49V18.492H108.978V26.172H107.49V27.66H106.026V29.172H101.322V27.66H99.8335V26.172ZM101.562 25.932V27.396H105.762V25.932H107.25V18.756H105.762V17.268H101.562V18.756H100.098V25.932H101.562ZM112.65 28.884V27.66H111.162V24.444H114.378V29.172H112.89V30.66H111.162V28.884H112.65ZM123.834 23.22H122.322V21.468H123.834V19.98H126.786V18.492H128.274V17.028H131.25V15.54H132.978V17.268H131.49V18.756H128.538V20.244H127.05V21.732H124.098V22.956H127.05V24.444H128.538V25.932H131.49V27.396H132.978V29.172H131.25V27.66H128.274V26.172H126.786V24.684H123.834V23.22ZM134.322 9.612H142.026V11.076H143.49V12.564H144.978V17.268H143.49V18.756H142.026V19.98H143.49V21.468H144.978V26.172H143.49V27.66H142.026V29.172H134.322V9.612ZM141.762 18.492V17.028H143.25V12.828H141.762V11.34H136.098V18.492H141.762ZM141.762 27.396V25.932H143.25V21.732H141.762V20.244H136.098V27.396H141.762ZM150.762 11.076H152.514V29.172H150.762V11.076ZM159.834 26.172H158.322V18.492H159.834V17.028H161.322V15.54H166.026V17.028H167.49V18.492H168.978V26.172H167.49V27.66H166.026V29.172H161.322V27.66H159.834V26.172ZM161.562 25.932V27.396H165.762V25.932H167.25V18.756H165.762V17.268H161.562V18.756H160.098V25.932H161.562ZM171.834 26.172H170.322V18.492H171.834V17.028H173.322V15.54H178.026V17.028H179.49V18.492H180.978V20.244H179.25V18.756H177.762V17.268H173.562V18.756H172.098V25.932H173.562V27.396H177.762V25.932H179.25V24.444H180.978V26.172H179.49V27.66H178.026V29.172H173.322V27.66H171.834V26.172ZM182.322 11.076H184.098V21.468H185.322V19.98H186.786V18.492H189.762V17.028H191.25V15.54H192.978V17.268H191.49V18.756H190.026V20.244H187.05V21.732H185.562V22.956H187.05V24.444H190.026V25.932H191.49V27.396H192.978V29.172H191.25V27.66H189.762V26.172H186.786V24.684H185.322V23.22H184.098V29.172H182.322V11.076ZM194.322 27.396H195.834V25.932H198.786V24.444H200.274V22.956H203.25V21.732H200.274V20.244H198.786V18.756H195.834V17.268H194.322V15.54H196.098V17.028H199.05V18.492H200.538V19.98H203.49V21.468H204.978V23.22H203.49V24.684H200.538V26.172H199.05V27.66H196.098V29.172H194.322V27.396ZM206.322 9.612H214.026V11.076H215.49V12.564H216.978V18.756H215.49V20.244H214.026V21.732H208.098V29.172H206.322V9.612ZM213.762 19.98V18.492H215.25V12.828H213.762V11.34H208.098V19.98H213.762ZM222.762 9.612H224.514V29.172H222.762V9.612ZM231.834 23.22H230.322V21.468H231.834V19.98H234.786V18.492H236.274V17.028H239.25V15.54H240.978V17.268H239.49V18.756H236.538V20.244H235.05V21.732H232.098V22.956H235.05V24.444H236.538V25.932H239.49V27.396H240.978V29.172H239.25V27.66H236.274V26.172H234.786V24.684H231.834V23.22ZM242.322 25.932H243.81V22.956H245.274V19.98H246.762V17.028H248.25V14.052H249.738V11.076H251.202V8.124H252.954V11.34H251.466V14.316H249.978V17.268H248.514V20.244H247.026V23.22H245.538V26.172H244.05V29.172H242.322V25.932ZM254.322 9.612H262.026V11.076H263.49V12.564H264.978V17.268H263.49V18.756H262.026V19.98H263.49V21.468H264.978V26.172H263.49V27.66H262.026V29.172H254.322V9.612ZM261.762 18.492V17.028H263.25V12.828H261.762V11.34H256.098V18.492H261.762ZM261.762 27.396V25.932H263.25V21.732H261.762V20.244H256.098V27.396H261.762ZM270.762 11.076H272.514V29.172H270.762V11.076ZM279.834 26.172H278.322V18.492H279.834V17.028H281.322V15.54H286.026V17.028H287.49V18.492H288.978V26.172H287.49V27.66H286.026V29.172H281.322V27.66H279.834V26.172ZM281.562 25.932V27.396H285.762V25.932H287.25V18.756H285.762V17.268H281.562V18.756H280.098V25.932H281.562ZM291.834 26.172H290.322V18.492H291.834V17.028H293.322V15.54H298.026V17.028H299.49V18.492H300.978V20.244H299.25V18.756H297.762V17.268H293.562V18.756H292.098V25.932H293.562V27.396H297.762V25.932H299.25V24.444H300.978V26.172H299.49V27.66H298.026V29.172H293.322V27.66H291.834V26.172ZM302.322 11.076H304.098V21.468H305.322V19.98H306.786V18.492H309.762V17.028H311.25V15.54H312.978V17.268H311.49V18.756H310.026V20.244H307.05V21.732H305.562V22.956H307.05V24.444H310.026V25.932H311.49V27.396H312.978V29.172H311.25V27.66H309.762V26.172H306.786V24.684H305.322V23.22H304.098V29.172H302.322V11.076ZM314.322 27.396H315.834V25.932H318.786V24.444H320.274V22.956H323.25V21.732H320.274V20.244H318.786V18.756H315.834V17.268H314.322V15.54H316.098V17.028H319.05V18.492H320.538V19.98H323.49V21.468H324.978V23.22H323.49V24.684H320.538V26.172H319.05V27.66H316.098V29.172H314.322V27.396Z" fill="#060606"/>
</svg>
