<svg width="24" height="24" viewBox="0 0 24 24" xmlns="http://www.w3.org/2000/svg">
<g id="prime:search">
<path id="Vector" d="M10.77 18.3002C9.2807 18.3002 7.82485 17.8586 6.58655 17.0312C5.34825 16.2038 4.38311 15.0278 3.81318 13.6518C3.24325 12.2759 3.09413 10.7619 3.38468 9.30121C3.67523 7.84053 4.39239 6.49881 5.44548 5.44572C6.49857 4.39263 7.84029 3.67547 9.30096 3.38492C10.7616 3.09438 12.2757 3.2435 13.6516 3.81342C15.0275 4.38335 16.2036 5.34849 17.031 6.58679C17.8584 7.8251 18.3 9.28094 18.3 10.7702C18.3 11.7591 18.1052 12.7383 17.7268 13.6518C17.3484 14.5654 16.7937 15.3955 16.0945 16.0948C15.3953 16.794 14.5652 17.3486 13.6516 17.727C12.738 18.1055 11.7588 18.3002 10.77 18.3002ZM10.77 4.75024C9.58331 4.75024 8.42327 5.10213 7.43657 5.76142C6.44988 6.42071 5.68084 7.35778 5.22672 8.45414C4.77259 9.55049 4.65377 10.7569 4.88528 11.9208C5.11679 13.0847 5.68824 14.1538 6.52735 14.9929C7.36647 15.832 8.43556 16.4034 9.59945 16.6349C10.7633 16.8665 11.9697 16.7476 13.0661 16.2935C14.1624 15.8394 15.0995 15.0704 15.7588 14.0837C16.4181 13.097 16.77 11.9369 16.77 10.7502C16.77 9.15894 16.1379 7.63282 15.0126 6.5076C13.8874 5.38238 12.3613 4.75024 10.77 4.75024Z" />
<path id="Vector_2" d="M20 20.75C19.9015 20.7504 19.8038 20.7312 19.7128 20.6934C19.6218 20.6557 19.5393 20.6001 19.47 20.53L15.34 16.4C15.2075 16.2578 15.1354 16.0697 15.1388 15.8754C15.1423 15.6811 15.221 15.4958 15.3584 15.3583C15.4958 15.2209 15.6812 15.1422 15.8755 15.1388C16.0698 15.1354 16.2578 15.2075 16.4 15.34L20.53 19.47C20.6705 19.6106 20.7494 19.8012 20.7494 20C20.7494 20.1987 20.6705 20.3893 20.53 20.53C20.4608 20.6001 20.3782 20.6557 20.2872 20.6934C20.1962 20.7312 20.0986 20.7504 20 20.75Z" />
</g>
</svg>
