<svg width="48" height="49" viewBox="0 0 48 49" fill="none" xmlns="http://www.w3.org/2000/svg">
<ellipse cx="25.1119" cy="26.0373" rx="22.888" ry="22.7126" fill="#060606"/>
<path d="M44.7434 23.4626C44.7434 35.4287 34.9659 45.1426 22.888 45.1426C10.8102 45.1426 1.0327 35.4287 1.0327 23.4626C1.0327 11.4966 10.8102 1.7827 22.888 1.7827C34.9659 1.7827 44.7434 11.4966 44.7434 23.4626Z" fill="#D6EF72" stroke="#060606" stroke-width="2.0654"/>
<path d="M28.8879 19.9626H27.8879V17.9626C27.8879 15.2026 25.6479 12.9626 22.8879 12.9626C20.1279 12.9626 17.8879 15.2026 17.8879 17.9626V19.9626H16.8879C15.7879 19.9626 14.8879 20.8626 14.8879 21.9626V31.9626C14.8879 33.0626 15.7879 33.9626 16.8879 33.9626H28.8879C29.9879 33.9626 30.8879 33.0626 30.8879 31.9626V21.9626C30.8879 20.8626 29.9879 19.9626 28.8879 19.9626ZM19.8879 17.9626C19.8879 16.3026 21.2279 14.9626 22.8879 14.9626C24.5479 14.9626 25.8879 16.3026 25.8879 17.9626V19.9626H19.8879V17.9626ZM28.8879 31.9626H16.8879V21.9626H28.8879V31.9626ZM22.8879 28.9626C23.9879 28.9626 24.8879 28.0626 24.8879 26.9626C24.8879 25.8626 23.9879 24.9626 22.8879 24.9626C21.7879 24.9626 20.8879 25.8626 20.8879 26.9626C20.8879 28.0626 21.7879 28.9626 22.8879 28.9626Z" fill="#060606"/>
</svg>
