<svg width="15" height="14" viewBox="0 0 15 14" fill="none" xmlns="http://www.w3.org/2000/svg">
<g id="Frame 2001" clip-path="url(#clip0_1647_11542)">
<path id="Vector" fill-rule="evenodd" clip-rule="evenodd" d="M5.84732 1.51679C6.55351 0.26133 8.36009 0.26133 9.06536 1.51679L14.2165 10.6743C14.9088 11.9057 14.0198 13.4252 12.6084 13.4252H2.30525C0.892854 13.4252 0.00387603 11.9057 0.696227 10.6743L5.84732 1.51679ZM8.37947 10.6567C8.37947 10.9016 8.28221 11.1364 8.10909 11.3095C7.93597 11.4826 7.70117 11.5799 7.45634 11.5799C7.21151 11.5799 6.97671 11.4826 6.80358 11.3095C6.63046 11.1364 6.5332 10.9016 6.5332 10.6567C6.5332 10.4119 6.63046 10.1771 6.80358 10.004C6.97671 9.83087 7.21151 9.73361 7.45634 9.73361C7.70117 9.73361 7.93597 9.83087 8.10909 10.004C8.28221 10.1771 8.37947 10.4119 8.37947 10.6567ZM7.45634 3.27167C7.21151 3.27167 6.97671 3.36893 6.80358 3.54205C6.63046 3.71517 6.5332 3.94997 6.5332 4.1948V6.96421C6.5332 7.20904 6.63046 7.44384 6.80358 7.61696C6.97671 7.79008 7.21151 7.88734 7.45634 7.88734C7.70117 7.88734 7.93597 7.79008 8.10909 7.61696C8.28221 7.44384 8.37947 7.20904 8.37947 6.96421V4.1948C8.37947 3.94997 8.28221 3.71517 8.10909 3.54205C7.93597 3.36893 7.70117 3.27167 7.45634 3.27167Z" fill="#D77400"/>
</g>
<defs>
<clipPath id="clip0_1647_11542">
<rect width="14" height="14" fill="white" transform="translate(0.45636)"/>
</clipPath>
</defs>
</svg>
