<svg width="32" height="32" viewBox="0 0 32 32" fill="none" xmlns="http://www.w3.org/2000/svg">
<g clip-path="url(#clip0_2896_2472)">
<path d="M23.1036 11.6824H20.8054C20.55 11.6824 20.2946 11.5663 20.1089 11.3806L19.1804 10.3359C18.9018 10.0342 18.4607 10.0109 18.1357 10.2663L18.0661 10.3359L17.2768 11.2413C17.0214 11.5431 16.6268 11.7056 16.2321 11.7056H3.67321C3.325 12.727 3.09286 13.8181 3 14.9092H14.8857C15.0946 14.9092 15.3036 14.8163 15.4429 14.677L16.5571 13.5163C16.6964 13.377 16.8821 13.2842 17.0911 13.2842H17.1375C17.3464 13.2842 17.5554 13.377 17.6946 13.5395L18.6232 14.5842C18.8089 14.7931 19.0643 14.9092 19.3196 14.9092H29C28.9071 13.8181 28.675 12.727 28.3268 11.7056H23.1036V11.6824ZM15.4893 18.0895L14.5607 17.0449C14.2821 16.7431 13.8411 16.7199 13.5161 16.9752L13.4464 17.0449L12.6339 17.9502C12.3786 18.252 12.0071 18.4145 11.6125 18.4145H3.18571C3.39464 19.5288 3.76607 20.6199 4.25357 21.6645H10.1732C10.3821 21.6645 10.5679 21.5717 10.7304 21.4324L11.8446 20.2717C11.9839 20.1324 12.1696 20.0395 12.3786 20.0395H12.425C12.6339 20.0395 12.8429 20.1324 12.9821 20.2949L13.9107 21.3395C14.0964 21.5484 14.3518 21.6645 14.6071 21.6645H27.7464C28.2339 20.6431 28.6054 19.552 28.8143 18.4145H16.1857C15.9071 18.4145 15.6518 18.2984 15.4893 18.0895ZM20.0393 7.96809L21.1536 6.80738C21.2929 6.66809 21.4786 6.57524 21.6875 6.57524H21.7339C21.9429 6.57524 22.1518 6.66809 22.2911 6.80738L23.2196 7.85202C23.4054 8.06095 23.6607 8.15381 23.9161 8.15381H26.4232C22.0589 2.39666 13.8643 1.25916 8.08393 5.60024C7.13214 6.31988 6.27321 7.17881 5.53036 8.15381H19.4821C19.7143 8.20024 19.9 8.10738 20.0393 7.96809ZM11.0554 24.8681C10.7768 24.8681 10.5214 24.752 10.3589 24.5663L9.43036 23.5217C9.15179 23.2199 8.6875 23.1967 8.38571 23.4752L8.33929 23.5217L7.52679 24.427C7.27143 24.7288 6.9 24.8913 6.50536 24.8913H6.45893C11.3571 30.1377 19.6446 30.3931 24.9143 25.4484C25.1232 25.2627 25.3089 25.0538 25.5179 24.8449H11.0554V24.8681Z" fill="black"/>
</g>
<defs>
<clipPath id="clip0_2896_2472">
<rect width="26" height="26" fill="white" transform="translate(3 3)"/>
</clipPath>
</defs>
</svg>
