<svg width="32" height="32" viewBox="0 0 32 32" fill="none" xmlns="http://www.w3.org/2000/svg">
<mask id="mask0_4792_2922" style="mask-type:luminance" maskUnits="userSpaceOnUse" x="3" y="7" width="26" height="18">
<path d="M28.6659 7.36719H3.33594V24.6376H28.6659V7.36719Z" fill="white"/>
</mask>
<g mask="url(#mask0_4792_2922)">
<path d="M12.1234 7.36719H9.80349C9.64329 7.36719 9.50029 7.46764 9.44533 7.61852L3.34764 24.381C3.3023 24.5057 3.39437 24.6376 3.52672 24.6376H5.84658C6.00678 24.6376 6.14978 24.5372 6.20474 24.3864L12.3024 7.62385C12.3478 7.49914 12.2557 7.36719 12.1234 7.36719ZM14.945 14.3908C14.8841 14.2233 14.6479 14.2233 14.5868 14.3908L13.3841 17.6974C13.3534 17.7819 13.3534 17.8748 13.3841 17.9594L15.7221 24.3863C15.777 24.5372 15.9201 24.6375 16.0803 24.6375H18.4001C18.5325 24.6375 18.6246 24.5056 18.5792 24.3808L14.945 14.3908ZM20.8589 17.6272C20.9198 17.7948 21.156 17.7948 21.2169 17.6272L24.8558 7.62385C24.9012 7.49914 24.8091 7.36719 24.6768 7.36719H22.3569C22.1967 7.36719 22.0537 7.46752 21.9988 7.61852L19.6561 14.0585C19.6253 14.1431 19.6253 14.2359 19.6561 14.3204L20.8589 17.6272ZM16.2848 7.61674C16.2305 7.46688 16.0884 7.36719 15.9294 7.36719H13.6017C13.4416 7.36719 13.2987 7.46752 13.2437 7.61839L7.14612 24.381C7.10078 24.5057 7.19287 24.6376 7.32521 24.6376H9.64518C9.8054 24.6376 9.94838 24.5373 10.0033 24.3864L14.6719 11.5521C14.7026 11.4679 14.8213 11.4679 14.8518 11.5521L19.5205 24.3864C19.5753 24.5373 19.7184 24.6376 19.8786 24.6376H22.1986C22.331 24.6376 22.423 24.5057 22.3777 24.3811L16.2848 7.61674ZM28.4753 7.36719H26.1552C25.9951 7.36719 25.852 7.46752 25.7971 7.61839L21.5552 19.2795C21.5244 19.3641 21.5244 19.4568 21.5552 19.5414L22.7582 22.8482C22.8191 23.0157 23.0553 23.0157 23.1162 22.8482L27.3152 11.3048L28.6544 7.62373C28.6998 7.49914 28.6077 7.36719 28.4753 7.36719Z" fill="#EF8220"/>
</g>
</svg>
