<svg width="32" height="32" viewBox="0 0 32 32" fill="none" xmlns="http://www.w3.org/2000/svg">
<path d="M19.2043 15.031L21.293 11.487L26.9229 20.2557L26.9255 21.938L26.907 10.3583C26.9005 10.2186 26.8604 10.0825 26.7902 9.9616C26.72 9.84067 26.6217 9.73841 26.5037 9.66344L16.3679 3.83354C16.2468 3.776 16.1143 3.74645 15.9802 3.74708C15.8462 3.74771 15.714 3.77851 15.5934 3.83718C15.5621 3.85287 15.5318 3.8704 15.5026 3.88968L15.4673 3.91198L5.62868 9.61318L5.59037 9.6304C5.53938 9.65402 5.49072 9.68239 5.44505 9.71513C5.26053 9.8469 5.13478 10.0455 5.0946 10.2687C5.08845 10.3025 5.08425 10.3367 5.08203 10.371L5.09744 19.8074L10.3414 11.6796C11.0015 10.6019 12.44 10.2547 13.7753 10.2735L15.3425 10.3141L6.10804 25.1232L7.19667 25.75L16.5418 10.3289L20.6724 10.3139L11.3514 26.1235L15.2361 28.3592L15.7002 28.6261C15.9005 28.7057 16.1227 28.7101 16.3259 28.6385L26.6042 22.6821L24.6382 23.8208L19.2043 15.031ZM20.0013 26.5086L16.078 20.3512L18.4728 16.2875L23.6251 24.4084L20.0013 26.5086Z" fill="#2D374B"/>
<path d="M16.0781 20.3518L20.0014 26.509L23.6254 24.4088L18.4733 16.2881L16.0781 20.3518Z" fill="#28A0F0"/>
<path d="M26.9255 21.9388L26.9229 20.2565L21.293 11.4878L19.2031 15.0314L24.638 23.8211L26.6041 22.6824C26.6993 22.6053 26.7771 22.5089 26.8325 22.3996C26.8879 22.2904 26.9197 22.1706 26.9257 22.0482L26.9255 21.9388Z" fill="#28A0F0"/>
<path d="M3.33203 23.5258L6.10703 25.1249L15.3415 10.3157L13.7743 10.2751C12.439 10.2563 11.0005 10.6033 10.3404 11.6812L5.09643 19.809L3.33305 22.5195V23.5267L3.33203 23.5258Z" fill="white"/>
<path d="M20.6708 10.3154L16.5404 10.3304L7.19531 25.7515L10.4616 27.6323L11.3498 26.1257L20.6708 10.3154Z" fill="white"/>
<path d="M28.6654 10.294C28.6465 9.8677 28.5242 9.45243 28.309 9.08396C28.0939 8.7155 27.7923 8.40489 27.4304 8.17892L17.1618 2.27381C16.7952 2.09367 16.3922 2 15.9838 2C15.5754 2 15.1724 2.09367 14.8058 2.27381C14.72 2.31698 4.81976 8.05892 4.81976 8.05892C4.6822 8.12497 4.55064 8.20282 4.42654 8.29161C4.10508 8.52021 3.83959 8.81869 3.65002 9.16461C3.46045 9.51054 3.35173 9.89492 3.33203 10.2889V22.5187L5.09541 19.8081L5.08183 10.3722C5.09008 10.2428 5.12692 10.1169 5.18969 10.0035C5.25247 9.89007 5.33961 9.79199 5.44485 9.7163C5.49147 9.68286 15.5608 3.85437 15.5928 3.83836C15.7134 3.77968 15.8456 3.74889 15.9796 3.74825C16.1137 3.74762 16.2462 3.77717 16.3673 3.83471L26.5031 9.66502C26.6211 9.73999 26.7194 9.84225 26.7896 9.96318C26.8598 10.0841 26.8999 10.2202 26.9064 10.3598V22.0492C26.904 22.1704 26.8757 22.2897 26.8234 22.3991C26.7712 22.5085 26.6962 22.6054 26.6034 22.6835L24.6374 23.8222L23.6239 24.4099L19.9999 26.5102L16.3245 28.6402C16.1213 28.7119 15.899 28.7075 15.6988 28.6279L11.3506 26.1269L10.4624 27.6333L14.3702 29.8831C14.4995 29.9565 14.6146 30.0218 14.7091 30.0749C14.8554 30.1559 14.9552 30.2117 14.9902 30.2287C15.3172 30.372 15.6706 30.4447 16.0276 30.4421C16.3549 30.4426 16.6795 30.3815 16.9843 30.2621L27.6592 24.0802C27.9604 23.8459 28.2065 23.5484 28.3803 23.2088C28.5541 22.8691 28.6512 22.4954 28.665 22.1141L28.6654 10.294Z" fill="#96BEDC"/>
</svg>
