<svg width="57" height="57" viewBox="0 0 57 57" fill="none" xmlns="http://www.w3.org/2000/svg">
<path d="M46.0842 9.75H10.8672V41.7793H46.0842V9.75Z" fill="white"/>
<path fill-rule="evenodd" clip-rule="evenodd" d="M57 28.5C57 44.2403 44.2403 57 28.5 57C12.7599 57 0 44.2403 0 28.5C0 12.7599 12.7599 0 28.5 0C44.2403 0 57 12.7599 57 28.5ZM20.4239 39.8416H14.8929C13.7306 39.8416 13.1565 39.8416 12.8065 39.6177C12.4284 39.3725 12.1974 38.9664 12.1693 38.5183C12.1483 38.1054 12.4354 37.6011 13.0095 36.5929L26.6664 12.5208C27.2475 11.4986 27.5415 10.9875 27.9126 10.7985C28.3117 10.5955 28.7878 10.5955 29.1868 10.7985C29.5579 10.9875 29.852 11.4986 30.4331 12.5208L33.2406 17.4218L33.2549 17.4468C33.8826 18.5434 34.2009 19.0995 34.3398 19.6832C34.4938 20.3203 34.4938 20.9924 34.3398 21.6296C34.1998 22.2177 33.8848 22.7778 33.2476 23.891L26.074 36.5719L26.0555 36.6044C25.4237 37.7101 25.1035 38.2705 24.6597 38.6932C24.1767 39.1554 23.5955 39.4913 22.9584 39.6807C22.3773 39.8416 21.7262 39.8416 20.4239 39.8416ZM34.3916 39.8416H42.317C43.4862 39.8416 44.0744 39.8416 44.4247 39.6108C44.8027 39.3657 45.0406 38.9524 45.0619 38.5046C45.082 38.105 44.8012 37.6204 44.2509 36.6708C44.2319 36.6384 44.213 36.6055 44.1936 36.5721L40.2237 29.7808L40.1786 29.7043C39.6207 28.761 39.3391 28.2846 38.9775 28.1005C38.5786 27.8974 38.1092 27.8974 37.7103 28.1005C37.3462 28.2895 37.0522 28.7866 36.471 29.7878L32.5153 36.5791L32.5017 36.6025C31.9227 37.6021 31.6333 38.1016 31.6541 38.5114C31.6821 38.9596 31.9132 39.3725 32.2912 39.6177C32.6343 39.8416 33.2224 39.8416 34.3916 39.8416Z" fill="#E84142"/>
</svg>
