<svg width="32" height="32" viewBox="0 0 32 32" fill="none" xmlns="http://www.w3.org/2000/svg">
<path d="M23.8003 7.67197H8.15869V21.8977H23.8003V7.67197Z" fill="white"/>
<path fill-rule="evenodd" clip-rule="evenodd" d="M28.6475 15.9998C28.6475 22.9908 22.9803 28.658 15.9893 28.658C8.99834 28.658 3.33105 22.9908 3.33105 15.9998C3.33105 9.00881 8.99834 3.34152 15.9893 3.34152C22.9803 3.34152 28.6475 9.00881 28.6475 15.9998ZM12.4023 21.0371H9.9457C9.4295 21.0371 9.17451 21.0371 9.01904 20.9377C8.85111 20.8288 8.7485 20.6484 8.73606 20.4494C8.72672 20.266 8.85423 20.042 9.10921 19.5942L15.1749 8.90264C15.433 8.44863 15.5636 8.22162 15.7284 8.13767C15.9056 8.04749 16.1171 8.04749 16.2944 8.13767C16.4592 8.22162 16.5898 8.44863 16.8479 8.90264L18.0948 11.0794L18.1012 11.0905C18.38 11.5776 18.5213 11.8246 18.5831 12.0838C18.6515 12.3668 18.6515 12.6653 18.5831 12.9483C18.5209 13.2095 18.3809 13.4583 18.098 13.9527L14.9118 19.5849L14.9036 19.5993C14.623 20.0904 14.4807 20.3393 14.2837 20.5271C14.0691 20.7324 13.811 20.8815 13.528 20.9656C13.2699 21.0371 12.9807 21.0371 12.4023 21.0371ZM18.6061 21.0371H22.1261C22.6454 21.0371 22.9067 21.0371 23.0622 20.9346C23.2301 20.8257 23.3358 20.6422 23.3452 20.4433C23.3542 20.2658 23.2294 20.0506 22.985 19.6288C22.9766 19.6144 22.9682 19.5998 22.9596 19.585L21.1964 16.5686L21.1763 16.5347C20.9285 16.1157 20.8035 15.9041 20.6428 15.8223C20.4657 15.7321 20.2572 15.7321 20.08 15.8223C19.9183 15.9063 19.7877 16.1271 19.5296 16.5717L17.7727 19.5881L17.7667 19.5985C17.5095 20.0424 17.3809 20.2643 17.3902 20.4463C17.4026 20.6454 17.5053 20.8288 17.6732 20.9377C17.8256 21.0371 18.0868 21.0371 18.6061 21.0371Z" fill="#E84142"/>
</svg>
