<svg width="32" height="32" viewBox="0 0 32 32" fill="none" xmlns="http://www.w3.org/2000/svg">
<g clip-path="url(#clip0_492_1322)">
<path fill-rule="evenodd" clip-rule="evenodd" d="M15.9893 3.34174C22.9807 3.34174 28.6475 9.00853 28.6475 16C28.6475 22.9914 22.9807 28.6582 15.9893 28.6582C8.99785 28.6582 3.33105 22.9914 3.33105 16C3.33105 9.00853 8.99785 3.34174 15.9893 3.34174Z" fill="#231F20"/>
<path d="M10.2886 16.0003L10.2978 19.3475L13.1418 21.021V22.9806L8.63334 20.3364V15.0215L10.2886 16.0003ZM10.2886 12.6532V14.6037L8.63232 13.6239V11.6734L10.2886 10.6936L11.9531 11.6734L10.2886 12.6532ZM14.3295 11.6734L15.9859 10.6936L17.6503 11.6734L15.9859 12.6532L14.3295 11.6734Z" fill="#F0B90B"/>
<path d="M11.4844 18.6537V16.6941L13.1407 17.6739V19.6244L11.4844 18.6537ZM14.3284 21.7229L15.9847 22.7027L17.6492 21.7229V23.6734L15.9847 24.6532L14.3284 23.6734V21.7229ZM20.0246 11.6734L21.681 10.6936L23.3454 11.6734V13.6239L21.681 14.6037V12.6532L20.0246 11.6734ZM21.681 19.3475L21.6901 16.0003L23.3464 15.0205V20.3354L18.8379 22.9796V21.02L21.681 19.3475Z" fill="#F0B90B"/>
<path d="M20.4927 18.6544L18.8364 19.6251V17.6746L20.4927 16.6948V18.6544Z" fill="#F0B90B"/>
<path d="M20.4932 13.3464L20.5024 15.306L17.6502 16.9795V20.3348L15.9939 21.3054L14.3376 20.3348V16.9795L11.4854 15.306V13.3464L13.1488 12.3666L15.9837 14.0483L18.8359 12.3666L20.5003 13.3464H20.4932ZM11.4844 10.0003L15.9847 7.34689L20.4932 10.0003L18.8369 10.9801L15.9847 9.29837L13.1407 10.9801L11.4844 10.0003Z" fill="#F0B90B"/>
</g>
<defs>
<clipPath id="clip0_492_1322">
<rect width="25.3165" height="25.3165" fill="white" transform="translate(3.33105 3.34174)"/>
</clipPath>
</defs>
</svg>
