<svg width="33" height="32" viewBox="0 0 33 32" fill="none" xmlns="http://www.w3.org/2000/svg">
<g clip-path="url(#clip0_492_1326)">
<path d="M16.9574 28.6667C23.953 28.6667 29.6241 22.9956 29.6241 16C29.6241 9.0044 23.953 3.33334 16.9574 3.33334C9.96183 3.33334 4.29077 9.0044 4.29077 16C4.29077 22.9956 9.96183 28.6667 16.9574 28.6667Z" fill="#2E3148"/>
<path d="M16.9582 23.3507C21.0174 23.3507 24.308 20.0601 24.308 16.0009C24.308 11.9417 21.0174 8.65106 16.9582 8.65106C12.899 8.65106 9.6084 11.9417 9.6084 16.0009C9.6084 20.0601 12.899 23.3507 16.9582 23.3507Z" fill="#1B1E36"/>
<path d="M16.9828 4.95053C15.6155 4.95053 14.5068 9.90978 14.5068 16.0274C14.5068 22.145 15.6155 27.1042 16.9828 27.1042C18.3501 27.1042 19.4588 22.145 19.4588 16.0274C19.4588 9.90978 18.3501 4.95053 16.9828 4.95053ZM17.1538 26.4791C16.9974 26.6876 16.841 26.5312 16.841 26.5312C16.2114 25.8016 15.8965 24.4462 15.8965 24.4462C14.7951 20.9016 15.0573 13.2912 15.0573 13.2912C15.5749 7.24928 16.5165 5.822 16.8369 5.50513C16.8696 5.47279 16.9127 5.45303 16.9586 5.44932C17.0044 5.44561 17.0501 5.4582 17.0876 5.48486C17.5525 5.8143 17.9424 7.19202 17.9424 7.19202C19.0939 11.4664 18.9896 15.4801 18.9896 15.4801C19.0939 18.9725 18.4126 22.882 18.4126 22.882C17.8882 25.8531 17.1538 26.4791 17.1538 26.4791Z" fill="#6F7390"/>
<path d="M26.5919 10.5147C25.9112 9.32831 21.0582 10.8347 15.7493 13.879C10.4403 16.9232 6.69543 20.3531 7.37568 21.539C8.05593 22.7249 12.9094 21.219 18.2183 18.1747C23.5273 15.1305 27.2722 11.7006 26.5919 10.5147ZM8.00374 21.3762C7.74311 21.3434 7.80199 21.1292 7.80199 21.1292C8.12169 20.2201 9.13908 19.2725 9.13908 19.2725C11.6666 16.5531 18.3988 12.9933 18.3988 12.9933C23.8966 10.4355 25.6042 10.5434 26.0374 10.6627C26.0819 10.6751 26.1205 10.7028 26.1465 10.741C26.1725 10.7792 26.1841 10.8253 26.1793 10.8712C26.1272 11.4387 25.1237 12.4621 25.1237 12.4621C21.9913 15.5892 18.4577 17.4965 18.4577 17.4965C15.4802 19.3256 11.7501 20.6793 11.7501 20.6793C8.91189 21.702 8.00384 21.3762 8.00384 21.3762H8.00374Z" fill="#6F7390"/>
<path d="M26.5682 21.5778C27.2543 20.3945 23.5188 16.949 18.2285 13.8818C12.9382 10.8146 8.08585 9.28958 7.40043 10.4749C6.71502 11.6602 10.4499 15.1037 15.7432 18.1708C21.0366 21.238 25.8828 22.7632 26.5682 21.5778ZM7.85502 10.9321C7.75368 10.6918 7.9676 10.634 7.9676 10.634C8.91466 10.4551 10.245 10.8627 10.245 10.8627C13.8641 11.6868 20.3175 15.7292 20.3175 15.7292C25.2862 19.2061 26.0482 20.7375 26.1624 21.1722C26.174 21.2168 26.1695 21.2641 26.1497 21.3057C26.1298 21.3472 26.0959 21.3805 26.054 21.3995C25.5359 21.6367 24.1482 21.2833 24.1482 21.2833C19.8712 20.1365 16.4507 18.0354 16.4507 18.0354C13.3774 16.3777 10.3384 13.8272 10.3384 13.8272C8.02921 11.8829 7.85573 10.9347 7.85573 10.9347L7.85502 10.9321Z" fill="#6F7390"/>
<path d="M16.9584 17.3042C17.6781 17.3042 18.2616 16.7208 18.2616 16.0011C18.2616 15.2814 17.6781 14.6979 16.9584 14.6979C16.2387 14.6979 15.6553 15.2814 15.6553 16.0011C15.6553 16.7208 16.2387 17.3042 16.9584 17.3042Z" fill="#B7B9C8"/>
<path d="M22.2993 11.7773C22.7167 11.7773 23.0551 11.4273 23.0551 10.9954C23.0551 10.5636 22.7167 10.2136 22.2993 10.2136C21.8819 10.2136 21.5435 10.5636 21.5435 10.9954C21.5435 11.4273 21.8819 11.7773 22.2993 11.7773Z" fill="#B7B9C8"/>
<path d="M9.89549 14.4362C10.3129 14.4362 10.6513 14.0861 10.6513 13.6543C10.6513 13.2225 10.3129 12.8724 9.89549 12.8724C9.47805 12.8724 9.13965 13.2225 9.13965 13.6543C9.13965 14.0861 9.47805 14.4362 9.89549 14.4362Z" fill="#B7B9C8"/>
<path d="M15.4189 24.0273C15.8364 24.0273 16.1748 23.6773 16.1748 23.2455C16.1748 22.8136 15.8364 22.4636 15.4189 22.4636C15.0015 22.4636 14.6631 22.8136 14.6631 23.2455C14.6631 23.6773 15.0015 24.0273 15.4189 24.0273Z" fill="#B7B9C8"/>
</g>
<defs>
<clipPath id="clip0_492_1326">
<rect width="25.3333" height="25.3333" fill="white" transform="translate(4.29077 3.33334)"/>
</clipPath>
</defs>
</svg>
