<svg width="32" height="32" viewBox="0 0 32 32" fill="none" xmlns="http://www.w3.org/2000/svg">
<g clip-path="url(#clip0_3773_2632)">
<path d="M16 32C24.8366 32 32 24.8366 32 16C32 7.16344 24.8366 0 16 0C7.16344 0 0 7.16344 0 16C0 24.8366 7.16344 32 16 32Z" fill="#2E3148"/>
<path d="M15.9988 25.2828C21.1262 25.2828 25.2828 21.1262 25.2828 15.9988C25.2828 10.8714 21.1262 6.71484 15.9988 6.71484C10.8714 6.71484 6.71484 10.8714 6.71484 15.9988C6.71484 21.1262 10.8714 25.2828 15.9988 25.2828Z" fill="#1B1E36"/>
<path d="M16.0338 2.04297C14.3067 2.04297 12.9062 8.30729 12.9062 16.0348C12.9062 23.7623 14.3067 30.0266 16.0338 30.0266C17.7609 30.0266 19.1614 23.7623 19.1614 16.0348C19.1614 8.30729 17.7609 2.04297 16.0338 2.04297ZM16.2497 29.237C16.0522 29.5004 15.8547 29.3027 15.8547 29.3027C15.0593 28.3811 14.6616 26.669 14.6616 26.669C13.2704 22.1917 13.6015 12.5785 13.6015 12.5785C14.2554 4.94665 15.4447 3.14377 15.8495 2.74351C15.8908 2.70266 15.9452 2.6777 16.0032 2.67302C16.0611 2.66833 16.1188 2.68423 16.1662 2.71791C16.7534 3.13404 17.246 4.87433 17.246 4.87433C18.7004 10.2735 18.5687 15.3434 18.5687 15.3434C18.7004 19.755 17.8399 24.6932 17.8399 24.6932C17.1775 28.4462 16.2497 29.237 16.2497 29.237Z" fill="#6F7390"/>
<path d="M28.1708 9.07061C27.3109 7.57199 21.1808 9.47484 14.4748 13.3202C7.76875 17.1656 3.03838 21.498 3.89765 22.996C4.75691 24.494 10.8876 22.5918 17.5936 18.7464C24.2997 14.901 29.0301 10.5686 28.1708 9.07061V9.07061ZM4.69099 22.7904C4.36178 22.7489 4.43614 22.4784 4.43614 22.4784C4.83998 21.3301 6.1251 20.133 6.1251 20.133C9.31781 16.698 17.8216 12.2015 17.8216 12.2015C24.7661 8.97052 26.9232 9.10684 27.4704 9.25749C27.5265 9.27317 27.5754 9.30822 27.6082 9.35643C27.641 9.40465 27.6556 9.46292 27.6496 9.52092C27.5838 10.2377 26.3162 11.5305 26.3162 11.5305C22.3595 15.4805 17.896 17.8897 17.896 17.8897C14.135 20.2001 9.42328 21.91 9.42328 21.91C5.83813 23.2019 4.69112 22.7904 4.69112 22.7904H4.69099Z" fill="#6F7390"/>
<path d="M28.1386 23.0441C29.0052 21.5495 24.2867 17.1972 17.6042 13.3229C10.9217 9.44861 4.79245 7.52221 3.92666 9.01943C3.06087 10.5166 7.77856 14.8663 14.4649 18.7406C21.1512 22.6149 27.2728 24.5415 28.1386 23.0441ZM4.50087 9.59696C4.37287 9.29347 4.64308 9.22039 4.64308 9.22039C5.83936 8.99447 7.51975 9.50928 7.51975 9.50928C12.0913 10.5503 20.2429 15.6565 20.2429 15.6565C26.5192 20.0483 27.4817 21.9828 27.626 22.5319C27.6407 22.5882 27.635 22.6479 27.6099 22.7004C27.5848 22.7529 27.542 22.7949 27.489 22.819C26.8346 23.1186 25.0817 22.6722 25.0817 22.6722C19.6792 21.2236 15.3586 18.5695 15.3586 18.5695C11.4765 16.4757 7.63776 13.2539 7.63776 13.2539C4.7209 10.798 4.50176 9.60029 4.50176 9.60029L4.50087 9.59696Z" fill="#6F7390"/>
<path d="M16.0015 17.6476C16.9107 17.6476 17.6476 16.9107 17.6476 16.0015C17.6476 15.0924 16.9107 14.3555 16.0015 14.3555C15.0924 14.3555 14.3555 15.0924 14.3555 16.0015C14.3555 16.9107 15.0924 17.6476 16.0015 17.6476Z" fill="#B7B9C8"/>
<path d="M22.7477 10.6667C23.275 10.6667 23.7025 10.2245 23.7025 9.67905C23.7025 9.13359 23.275 8.69141 22.7477 8.69141C22.2204 8.69141 21.793 9.13359 21.793 9.67905C21.793 10.2245 22.2204 10.6667 22.7477 10.6667Z" fill="#B7B9C8"/>
<path d="M7.07975 14.0261C7.60705 14.0261 8.0345 13.5839 8.0345 13.0384C8.0345 12.493 7.60705 12.0508 7.07975 12.0508C6.55246 12.0508 6.125 12.493 6.125 13.0384C6.125 13.5839 6.55246 14.0261 7.07975 14.0261Z" fill="#B7B9C8"/>
<path d="M14.0563 26.1394C14.5836 26.1394 15.0111 25.6972 15.0111 25.1517C15.0111 24.6062 14.5836 24.1641 14.0563 24.1641C13.529 24.1641 13.1016 24.6062 13.1016 25.1517C13.1016 25.6972 13.529 26.1394 14.0563 26.1394Z" fill="#B7B9C8"/>
</g>
<defs>
<clipPath id="clip0_3773_2632">
<rect width="32" height="32" fill="white"/>
</clipPath>
</defs>
</svg>
