<svg width="32" height="32" viewBox="0 0 32 32" fill="none" xmlns="http://www.w3.org/2000/svg">
<rect x="3.27344" y="3.27344" width="25.3345" height="25.3345" rx="12.6673" fill="#051221"/>
<path d="M15.8384 5.45703L6.90625 10.6142V20.9284L15.8384 26.0856L24.7556 20.9284V10.6142L15.8384 5.45703ZM22.1101 19.3976L15.8235 23.024L9.5517 19.3976V12.145L15.8384 8.51862L22.1101 12.145V19.3976Z" fill="white"/>
<path d="M15.8391 26.0856L24.7563 20.9284V10.6142L15.8391 5.45703V8.51862L22.1109 12.145V19.4125L15.8242 23.0388V26.0856H15.8391Z" fill="white"/>
<path d="M15.8235 5.45703L6.90625 10.6142V20.9284L15.8235 26.0856V23.024L9.5517 19.3976V12.1301L15.8235 8.51862V5.45703Z" fill="white"/>
<path d="M20.0017 18.18L15.8403 20.5876L11.6641 18.18V13.3647L15.8403 10.957L20.0017 13.3647L18.2628 14.3753L15.8254 12.9634L13.4029 14.3753V17.1842L15.8403 18.5961L18.2777 17.1842L20.0017 18.18Z" fill="white"/>
</svg>
