<svg width="33" height="32" viewBox="0 0 33 32" fill="none" xmlns="http://www.w3.org/2000/svg">
<g clip-path="url(#clip0_492_1325)">
<path d="M16.9681 28.6582C23.959 28.6582 29.6263 22.9909 29.6263 16C29.6263 9.00902 23.959 3.34174 16.9681 3.34174C9.9771 3.34174 4.30981 9.00902 4.30981 16C4.30981 22.9909 9.9771 28.6582 16.9681 28.6582Z" fill="#13B5EC"/>
<path fill-rule="evenodd" clip-rule="evenodd" d="M17.9174 13.5475L20.7655 11.8861V15.2089L17.9174 13.5475ZM20.7655 20.6677L16.968 22.8829L13.1706 20.6677V16.7911L16.968 19.0063L20.7655 16.7911V20.6677ZM13.1706 11.8861L16.0187 13.5475L13.1706 15.2089V11.8861ZM17.4427 14.3386L20.2908 16L17.4427 17.6614V14.3386ZM16.4933 17.6614L13.6452 16L16.4933 14.3386V17.6614ZM20.2908 11.0949L16.968 12.9937L13.6452 11.0949L16.968 9.11708L20.2908 11.0949ZM12.2212 10.7785V21.1424L16.968 23.8323L21.7149 21.1424V10.7785L16.968 8.08859L12.2212 10.7785Z" fill="white"/>
</g>
<defs>
<clipPath id="clip0_492_1325">
<rect width="25.3165" height="25.3165" fill="white" transform="translate(4.30981 3.34174)"/>
</clipPath>
</defs>
</svg>