<svg width="33" height="32" viewBox="0 0 33 32" fill="none" xmlns="http://www.w3.org/2000/svg">
<path d="M6.6172 18.6899C6.12328 18.1959 5.79204 17.6254 5.62348 16.9785C5.45884 16.3276 5.45884 15.6768 5.62348 15.026C5.79204 14.3712 6.12132 13.7987 6.61132 13.3087C7.10915 12.8107 7.68344 12.4794 8.33416 12.3147C8.98488 12.15 9.6356 12.15 10.2863 12.3147C10.937 12.4794 11.5094 12.8087 12.0033 13.3028L13.2263 14.526L15.0374 12.7147L13.8143 11.4914C13.3204 10.9974 12.9892 10.4269 12.8206 9.77994C12.6559 9.12909 12.654 8.4802 12.8147 7.83327C12.9794 7.18242 13.3106 6.60803 13.8084 6.11009C14.3024 5.61607 14.8747 5.28673 15.5254 5.12205C16.1761 4.95738 16.8249 4.95934 17.4717 5.12793C18.1224 5.2926 18.6947 5.62196 19.1887 6.11597C19.6826 6.60999 20.0119 7.18242 20.1765 7.83327C20.3451 8.4802 20.347 9.12909 20.1824 9.77994C20.0216 10.4347 19.6943 11.0091 19.2004 11.5031L17.9832 12.7205L19.7884 14.526L21.0056 13.3087C21.4995 12.8146 22.0698 12.4833 22.7166 12.3147C23.3674 12.15 24.0161 12.152 24.6629 12.3206C25.3136 12.4853 25.8879 12.8166 26.3858 13.3145C26.8797 13.8085 27.209 14.381 27.3736 15.0318C27.5421 15.6788 27.5421 16.3257 27.3736 16.9726C27.209 17.6235 26.8797 18.1959 26.3858 18.6899C25.8879 19.1878 25.3136 19.5192 24.6629 19.6838C24.0161 19.8446 23.3674 19.8426 22.7166 19.6779C22.0738 19.5133 21.5053 19.1839 21.0114 18.6899L19.7943 17.4725L17.9832 19.2839L19.2004 20.5013C19.6943 20.9953 20.0216 21.5658 20.1824 22.2127C20.347 22.8636 20.347 23.5144 20.1824 24.1653C20.0177 24.8162 19.6865 25.3905 19.1887 25.8885C18.6987 26.3785 18.1263 26.7079 17.4717 26.8765C16.8209 27.0412 16.1702 27.0412 15.5195 26.8765C14.8766 26.7119 14.3082 26.3825 13.8143 25.8885C13.3165 25.3905 12.9833 24.8181 12.8147 24.1712C12.6501 23.5203 12.6501 22.8695 12.8147 22.2186C12.9872 21.5678 13.3185 20.9973 13.8084 20.5072L15.0374 19.278L13.2322 17.4725L12.0033 18.7017C11.5133 19.1918 10.939 19.5192 10.2804 19.6838C9.62972 19.8485 8.97901 19.8485 8.32829 19.6838C7.68149 19.5152 7.11112 19.1839 6.6172 18.6899ZM8.0872 17.2196C8.31063 17.4431 8.56936 17.5921 8.86336 17.6666C9.16128 17.745 9.45724 17.747 9.75124 17.6725C10.0452 17.598 10.304 17.449 10.5274 17.2255L11.7563 15.9963L10.5333 14.773C10.3098 14.5496 10.0492 14.4025 9.75124 14.332C9.45724 14.2575 9.16325 14.2575 8.86924 14.332C8.57524 14.4065 8.31456 14.5574 8.0872 14.7848C7.86375 15.0083 7.71284 15.2651 7.63444 15.5552C7.55996 15.8493 7.55996 16.1434 7.63444 16.4374C7.71284 16.7354 7.86375 16.9961 8.0872 17.2196ZM15.2843 10.0211L16.5074 11.2444L17.7245 10.0269C17.9519 9.79955 18.1009 9.54077 18.1714 9.25063C18.2459 8.95658 18.2439 8.66055 18.1655 8.36257C18.0911 8.06851 17.9421 7.80974 17.7186 7.58626C17.4952 7.36278 17.2365 7.21379 16.9425 7.13929C16.6485 7.0648 16.3545 7.0648 16.0605 7.13929C15.7704 7.20987 15.5117 7.35885 15.2843 7.58626C15.0609 7.80974 14.908 8.06851 14.8257 8.36257C14.7512 8.65663 14.7512 8.95069 14.8257 9.24475C14.908 9.53881 15.0609 9.79758 15.2843 10.0211ZM20.9199 16.0022L22.1371 17.2196C22.3605 17.4431 22.6173 17.594 22.9074 17.6725C23.2014 17.747 23.8378 17.745 24.1279 17.6666C24.4218 17.5921 24.6825 17.4411 24.9099 17.2138C25.1372 16.9863 25.2862 16.7275 25.3568 16.4374C25.4352 16.1473 25.4371 15.8552 25.3627 15.5612C25.2882 15.2671 25.1392 15.0083 24.9158 14.7848C24.6884 14.5574 24.4277 14.4065 24.1337 14.332C23.8397 14.2575 23.2014 14.2575 22.9074 14.332C22.6212 14.4065 22.3644 14.5574 22.1371 14.7848L20.9199 16.0022ZM15.2843 24.4182C15.5078 24.6417 15.7665 24.7907 16.0605 24.8651C16.3545 24.9397 16.6465 24.9377 16.9366 24.8593C17.2306 24.7848 17.4893 24.6358 17.7127 24.4123C17.9401 24.1849 18.0911 23.9242 18.1655 23.6301C18.2439 23.3399 18.2459 23.0479 18.1714 22.7538C18.1009 22.4558 17.9539 22.1951 17.7304 21.9716L16.5132 20.7542L15.2843 21.9834C15.0609 22.2069 14.9099 22.4637 14.8316 22.7538C14.7571 23.0479 14.7571 23.3419 14.8316 23.636C14.906 23.93 15.057 24.1908 15.2843 24.4182ZM14.7022 16.0022L16.5074 17.8077L18.3184 15.9963L16.5132 14.1908L14.7022 16.0022Z" fill="#24201F"/>
</svg>
