<svg width="73" height="73" viewBox="0 0 73 73" fill="none" xmlns="http://www.w3.org/2000/svg">
<rect x="0.5" y="0.5" width="72" height="72" rx="36" fill="#F5F5F5"/>
<g clip-path="url(#clip0_3546_6538)">
<path d="M24.7508 40.4561C26.3889 40.4561 27.987 39.9101 29.2788 38.9113L18.891 28.5234C16.3872 31.7597 16.9865 36.4209 20.2228 38.9246C21.5279 39.9101 23.1127 40.4561 24.7508 40.4561Z" fill="#00193C"/>
<path d="M55.6515 33.0358C55.6515 31.3978 55.1054 29.7996 54.1066 28.5078L43.7188 38.8957C46.955 41.3994 51.6029 40.8001 54.1066 37.5639C55.1054 36.2721 55.6515 34.6739 55.6515 33.0358Z" fill="#00193C"/>
<path d="M60.8848 21.7266L56.2902 26.3212C59.9925 30.756 59.4065 37.3616 54.9717 41.0639C51.0829 44.3135 45.4362 44.3135 41.5474 41.0639L36.5 46.1114L31.4659 41.0773C27.0311 44.7796 20.4255 44.1936 16.7231 39.7588C13.4736 35.87 13.4736 30.2233 16.7231 26.3345L14.3659 23.9773L12.1285 21.7266C9.425 26.1747 8 31.2887 8 36.496C8 52.2375 20.7584 64.996 36.5 64.996C52.2416 64.996 65 52.2375 65 36.496C65.0133 31.2887 63.575 26.1747 60.8848 21.7266Z" fill="#00193C"/>
<path d="M57.1201 16.8278C46.2661 5.44109 28.2339 5.01492 16.8472 15.8689C16.5142 16.1885 16.1946 16.5081 15.8883 16.8278C15.1824 17.5736 14.5166 18.346 13.8906 19.1584L36.5042 41.7852L59.1177 19.1584C58.5051 18.346 57.8259 17.5736 57.1201 16.8278ZM36.5042 11.7271C43.1631 11.7271 49.3691 14.2974 54.0303 18.9852L36.5042 36.5114L18.978 18.9852C23.6392 14.2974 29.8453 11.7271 36.5042 11.7271Z" fill="#00193C"/>
</g>
<defs>
<clipPath id="clip0_3546_6538">
<rect width="57" height="57" fill="white" transform="translate(8 8)"/>
</clipPath>
</defs>
</svg>
