<svg width="32" height="32" viewBox="0 0 32 32" fill="none" xmlns="http://www.w3.org/2000/svg">
<path fill-rule="evenodd" clip-rule="evenodd" d="M27.2874 14.6361C27.3403 15.0822 27.3697 15.5371 27.3697 15.9994C27.3697 22.2696 22.2805 27.3542 16.0013 27.3542C11.4292 27.3542 7.48888 24.6586 5.68326 20.7714L7.50211 19.8572C8.97127 23.0811 12.224 25.3218 16.0013 25.3218C21.1551 25.3218 25.3349 21.1485 25.3349 15.9994C25.3349 15.904 25.3334 15.8086 25.3305 15.7132L27.2874 14.6361ZM16.0013 4.64453C20.7893 4.64453 24.8868 7.60138 26.5617 11.7879L24.6165 12.4071C23.209 9.04235 19.8814 6.67691 16.0013 6.67691C10.8474 6.67691 6.66763 10.8502 6.66763 15.9994C6.66763 16.0625 6.66907 16.127 6.67055 16.1901L4.76651 17.7456C4.67836 17.1762 4.63281 16.5937 4.63281 15.9994C4.63428 9.72766 9.7235 4.64453 16.0013 4.64453Z" fill="#010F36"/>
<path fill-rule="evenodd" clip-rule="evenodd" d="M3.33594 20.5403L14.4546 11.457L13.9933 15.2341L20.4826 11.5612L20.1535 15.1476L28.6659 12.4402L17.1212 18.7912L17.9836 15.1769L11.3135 19.0817L11.7543 16.3098L3.33594 20.5403Z" fill="#010F36"/>
</svg>
