<svg width="32" height="32" viewBox="0 0 32 32" fill="none" xmlns="http://www.w3.org/2000/svg">
<path d="M22.5572 19.1677C22.9959 18.6953 23.3882 18.1722 23.7298 17.6028C24.5523 16.2235 24.9657 14.7093 24.9657 13.0601C24.9657 11.4109 24.5565 9.86714 23.7383 8.48366C22.92 7.09596 21.8233 6.00352 20.4441 5.20211C19.0648 4.40071 17.5717 4 15.9688 4C14.366 4 12.8476 4.40071 11.4599 5.20211C10.0722 6.00352 8.96709 7.09596 8.14038 8.47522C7.31366 9.85448 6.90453 11.3603 6.90453 12.9968C6.90453 14.6334 7.31788 16.232 8.14038 17.6197C8.49047 18.2102 8.89539 18.7501 9.3467 19.2309C7.8156 20.1631 6.875 21.4158 6.875 22.7909C6.875 25.6633 10.9664 28 15.9984 28C21.0304 28 25.1217 25.6633 25.1217 22.7909C25.1217 21.3863 24.1432 20.1083 22.553 19.1719L22.5572 19.1677ZM9.45637 25.0179C8.54952 24.3431 8.05602 23.5712 8.05602 22.7866C8.05602 21.8207 8.80681 20.8675 10.165 20.0998C10.1903 20.0872 10.2156 20.0703 10.2451 20.0576C10.6205 20.3613 11.017 20.6355 11.443 20.8844C11.4852 20.9097 11.5316 20.9308 11.5738 20.9561C10.1144 21.6731 9.18642 22.7402 9.18642 23.9255C9.18642 24.3051 9.27922 24.6678 9.45637 25.0179ZM16.0068 26.6629C13.9358 26.6629 12.8054 25.7645 12.8054 25.3005C12.8054 24.8366 13.9358 23.9381 16.0068 23.9381C18.0778 23.9381 19.2082 24.8366 19.2082 25.3005C19.2082 25.7645 18.0778 26.6629 16.0068 26.6629ZM20.3513 25.6084C20.3724 25.5072 20.385 25.406 20.385 25.3005C20.385 23.9002 18.4195 22.7656 16.0068 22.7656C13.5942 22.7656 11.6286 23.9044 11.6286 25.3005C11.6286 25.406 11.6413 25.5072 11.6623 25.6084C10.8609 25.1318 10.3632 24.5413 10.3632 23.9255C10.3632 22.9975 11.4894 22.1286 13.0796 21.6267C13.9696 21.9262 14.8933 22.0738 15.8592 22.0738C16.8926 22.0738 17.8796 21.9135 18.8202 21.593C20.4736 22.0865 21.6504 22.9807 21.6504 23.9255C21.6504 24.5413 21.1527 25.1318 20.3513 25.6084ZM22.5572 25.0179C22.7344 24.6721 22.8272 24.3051 22.8272 23.9255C22.8272 22.7107 21.8571 21.6267 20.3428 20.9054C20.3639 20.8928 20.385 20.8844 20.4061 20.8717C20.8574 20.6144 21.2792 20.3234 21.6673 20.0028C21.7263 20.0366 21.7896 20.0661 21.8486 20.0998C23.2068 20.8675 23.9576 21.8207 23.9576 22.7866C23.9576 23.567 23.4683 24.3431 22.5572 25.0179Z" fill="#00A84F"/>
</svg>
