<svg width="32" height="32" viewBox="0 0 32 32" fill="none" xmlns="http://www.w3.org/2000/svg">
<path d="M15.9999 28.6667C22.9955 28.6667 28.6666 22.9956 28.6666 16C28.6666 9.0044 22.9955 3.33334 15.9999 3.33334C9.00431 3.33334 3.33325 9.0044 3.33325 16C3.33325 22.9956 9.00431 28.6667 15.9999 28.6667Z" fill="#FF0420"/>
<path d="M12.3056 19.3633C11.5507 19.3633 10.9325 19.186 10.4512 18.8313C9.97495 18.4716 9.73682 17.9548 9.73682 17.291C9.73682 17.1492 9.75202 16.982 9.78242 16.7793C9.86348 16.3233 9.98002 15.7761 10.132 15.1326C10.5627 13.3897 11.6773 12.5182 13.4709 12.5182C13.9573 12.5182 14.3981 12.5993 14.7832 12.7665C15.1683 12.9236 15.4723 13.1668 15.6952 13.491C15.9181 13.8102 16.0296 14.1902 16.0296 14.631C16.0296 14.7628 16.0144 14.93 15.984 15.1326C15.8877 15.695 15.7763 16.2473 15.6395 16.7793C15.4165 17.6457 15.0365 18.2993 14.4893 18.73C13.9472 19.1556 13.2176 19.3633 12.3056 19.3633ZM12.4424 17.9953C12.7971 17.9953 13.096 17.8889 13.3443 17.6812C13.5976 17.4735 13.78 17.1543 13.8864 16.7185C14.0333 16.1207 14.1448 15.6038 14.2208 15.158C14.2461 15.0262 14.2613 14.8894 14.2613 14.7476C14.2613 14.17 13.9624 13.8812 13.3595 13.8812C13.0048 13.8812 12.7008 13.9876 12.4475 14.1953C12.1992 14.403 12.0219 14.7222 11.9155 15.158C11.7989 15.5836 11.6875 16.1004 11.5709 16.7185C11.5456 16.8452 11.5304 16.9769 11.5304 17.1188C11.5253 17.7065 11.8344 17.9953 12.4424 17.9953Z" fill="white"/>
<path d="M16.4698 19.2722C16.3988 19.2722 16.3482 19.2519 16.3076 19.2063C16.2772 19.1557 16.2671 19.0999 16.2772 19.0341L17.5895 12.8527C17.5996 12.7818 17.6351 12.7261 17.6959 12.6805C17.7516 12.6349 17.8124 12.6146 17.8783 12.6146H20.4066C21.1108 12.6146 21.6732 12.7615 22.0988 13.0503C22.5295 13.3442 22.7474 13.7647 22.7474 14.317C22.7474 14.4741 22.7271 14.6413 22.6916 14.8135C22.5346 15.5431 22.2154 16.0802 21.729 16.4298C21.2527 16.7794 20.5991 16.9517 19.7682 16.9517H18.4863L18.0506 19.0341C18.0354 19.105 18.005 19.1607 17.9442 19.2063C17.8884 19.2519 17.8276 19.2722 17.7618 19.2722H16.4698ZM19.834 15.6394C20.1026 15.6394 20.3306 15.5685 20.5282 15.4215C20.7308 15.2746 20.8626 15.0669 20.9284 14.7933C20.9487 14.6869 20.9588 14.5906 20.9588 14.5095C20.9588 14.3271 20.9031 14.1853 20.7967 14.089C20.6903 13.9877 20.5028 13.937 20.2444 13.937H19.1044L18.7447 15.6394H19.834Z" fill="white"/>
</svg>
