<svg width="32" height="32" viewBox="0 0 32 32" fill="none" xmlns="http://www.w3.org/2000/svg">
<path d="M22.304 20.7026L28.471 17.1416C28.798 16.9525 29 16.6016 29 16.2252V9.10306C29 8.72656 28.798 8.37579 28.471 8.18662L22.304 4.62556C21.977 4.4364 21.5712 4.43823 21.2461 4.62556L15.0789 8.18662C14.7521 8.37579 14.55 8.72656 14.55 9.10306V21.8303L10.225 24.3262L5.89991 21.8303V16.8368L10.225 14.3409L13.0772 15.9882V12.6384L10.7539 11.2959C10.5941 11.2041 10.4105 11.1545 10.225 11.1545C10.0394 11.1545 9.85587 11.2041 9.69608 11.2959L3.52893 14.8569C3.20202 15.0461 3 15.3969 3 15.7734V22.8955C3 23.272 3.20202 23.6227 3.52893 23.8119L9.69608 27.373C10.0229 27.5603 10.427 27.5603 10.7539 27.373L16.921 23.8119C17.248 23.6227 17.4499 23.272 17.4499 22.8955V10.1664L17.527 10.1223L21.7732 7.67055L26.0983 10.1664V15.16L21.7732 17.6559L18.9246 16.0121V19.362L21.2442 20.7009C21.5712 20.8882 21.977 20.8882 22.3021 20.7009L22.304 20.7026Z" fill="url(#paint0_linear_5006_4186)"/>
<defs>
<linearGradient id="paint0_linear_5006_4186" x1="2.91552" y1="23.5934" x2="27.8834" y2="9.10122" gradientUnits="userSpaceOnUse">
<stop stop-color="#A726C1"/>
<stop offset="0.88" stop-color="#803BDF"/>
<stop offset="1" stop-color="#7B3FE4"/>
</linearGradient>
</defs>
</svg>
