<svg width="32" height="32" viewBox="0 0 32 32" fill="none" xmlns="http://www.w3.org/2000/svg">
<path d="M25.3368 19.8981V7.04295C25.3195 5.96732 24.4776 5.10156 23.421 5.10156H10.2422C7.39851 5.14529 5.11328 7.51519 5.11328 10.4185C5.11328 11.398 5.37102 12.2375 5.76621 12.9721C6.10126 13.5842 6.62532 14.1614 7.14078 14.5899C7.28683 14.7123 7.21811 14.6599 7.66484 14.9397C8.2834 15.3244 8.98787 15.5168 8.98787 15.5168L8.97928 23.2037C8.99646 23.571 9.03083 23.9208 9.12533 24.2444C9.41743 25.3288 10.1563 26.1596 11.1614 26.5618C11.5824 26.728 12.0549 26.8416 12.5618 26.8504L23.0859 26.8854C25.1821 26.8854 26.8831 25.1539 26.8831 23.0113C26.8917 21.7433 26.2732 20.6065 25.3368 19.8981Z" fill="#FFEEDA"/>
<path d="M25.5946 23.1088C25.5517 24.4818 24.4434 25.5836 23.086 25.5836L15.8438 25.5574C16.4193 24.8753 16.7715 23.992 16.7715 23.0301C16.7715 21.5172 15.8867 20.4766 15.8867 20.4766H23.0946C24.4778 20.4766 25.6032 21.6221 25.6032 23.0301L25.5946 23.1088Z" fill="#EBC28E"/>
<path d="M7.82807 13.5085C6.99473 12.7039 6.41054 11.6633 6.41054 10.4302V10.2991C6.47927 8.19152 8.18031 6.49499 10.2508 6.43377H23.4295C23.7732 6.45126 24.0481 6.69613 24.0481 7.05467V18.4057C24.3487 18.4582 24.4948 18.5019 24.7869 18.6069C25.0189 18.6943 25.3368 18.8779 25.3368 18.8779V7.05467C25.3196 5.97903 24.4776 5.11328 23.421 5.11328H10.2422C7.39851 5.15701 5.11328 7.5269 5.11328 10.4302C5.11328 12.118 5.8693 13.561 7.10642 14.5753C7.19233 14.6454 7.26965 14.7328 7.49302 14.7328C7.87962 14.7328 8.15454 14.418 8.13735 14.0769C8.12876 13.7883 8.00849 13.6834 7.82807 13.5085Z" fill="#101010"/>
<path d="M23.0852 19.1479H12.7502C12.0543 19.1566 11.4959 19.7251 11.4959 20.4334V21.9462C11.513 22.6459 12.0973 23.2406 12.7931 23.2406H13.5577V21.9462H12.7931V20.4684C12.7931 20.4684 12.9821 20.4684 13.2141 20.4684C14.5199 20.4684 15.4822 21.7014 15.4822 23.0219C15.4822 24.1938 14.434 25.6891 12.6814 25.5668C11.1264 25.4618 10.2845 24.0538 10.2845 23.0219V10.2017C10.2845 9.62458 9.82061 9.15234 9.25359 9.15234H8.22266V10.4641H8.98727V23.0306C8.94431 25.5843 10.7742 26.8698 12.6814 26.8698L23.0939 26.9047C25.1901 26.9047 26.8912 25.1732 26.8912 23.0306C26.8912 20.8882 25.1815 19.1479 23.0852 19.1479ZM25.5938 23.1094C25.5509 24.4823 24.4426 25.5843 23.0852 25.5843L15.843 25.5579C16.4186 24.8759 16.7708 23.9926 16.7708 23.0306C16.7708 21.5178 15.8859 20.4771 15.8859 20.4771H23.0939C24.477 20.4771 25.6025 21.6228 25.6025 23.0306L25.5938 23.1094Z" fill="#101010"/>
<path d="M20.3038 10.6985H12.5117V9.38672H20.3038C20.6561 9.38672 20.9482 9.6753 20.9482 10.0426C20.9482 10.4011 20.6647 10.6985 20.3038 10.6985Z" fill="#101010"/>
<path d="M20.3038 16.8743H12.5117V15.5625H20.3038C20.6561 15.5625 20.9482 15.8512 20.9482 16.2185C20.9482 16.577 20.6647 16.8743 20.3038 16.8743Z" fill="#101010"/>
<path d="M21.6785 13.7844H12.5117V12.4727H21.6698C22.0221 12.4727 22.3142 12.7612 22.3142 13.1285C22.3227 13.4871 22.0307 13.7844 21.6785 13.7844Z" fill="#101010"/>
</svg>
