<svg width="32" height="32" viewBox="0 0 32 32" fill="none" xmlns="http://www.w3.org/2000/svg">
<path fill-rule="evenodd" clip-rule="evenodd" d="M5 16C5 22.0752 9.92473 27 15.9998 27C22.0749 27 27 22.0752 27 16C27 9.9248 22.0749 5 15.9998 5C9.92473 5 5 9.9248 5 16Z" fill="#0C0C4F"/>
<path fill-rule="evenodd" clip-rule="evenodd" d="M11.1491 13.4116L11.4207 12.5727C11.4758 12.4021 11.6105 12.2693 11.7817 12.2169L12.6248 11.9577C12.7415 11.922 12.7424 11.7574 12.6266 11.7199L11.7874 11.4484C11.6171 11.3932 11.4843 11.2585 11.4317 11.0872L11.1728 10.2442C11.1371 10.1278 10.9725 10.1266 10.935 10.2427L10.6634 11.0816C10.6083 11.2519 10.4736 11.3846 10.3023 11.4373L9.45932 11.6963C9.34263 11.7322 9.34138 11.8965 9.45743 11.934L10.2966 12.2056C10.467 12.2608 10.5997 12.3957 10.6524 12.567L10.9113 13.4097C10.9469 13.5264 11.1116 13.5276 11.1491 13.4116Z" fill="#FAFAFA"/>
<path fill-rule="evenodd" clip-rule="evenodd" d="M24.474 12.9174C24.1265 12.5288 23.5841 12.3099 23.0568 12.2202C22.5252 12.134 21.968 12.142 21.4432 12.2352C20.3815 12.4148 19.417 12.8545 18.5758 13.3968C18.1389 13.663 17.7664 13.9709 17.3804 14.2846C17.1944 14.4432 17.0249 14.6122 16.8483 14.7786L16.3658 15.2587C15.8415 15.8068 15.3247 16.3059 14.8247 16.7196C14.3228 17.1315 13.8534 17.4442 13.3909 17.6627C12.9287 17.8822 12.434 18.0113 11.7894 18.032C11.1504 18.0545 10.3944 17.9392 9.58569 17.7489C8.77266 17.5593 7.9189 17.2892 6.96484 17.0567C7.29774 17.9803 7.79904 18.7964 8.44264 19.5425C9.0938 20.2756 9.9069 20.9438 10.9514 21.3832C11.9809 21.8324 13.2745 21.9936 14.4842 21.7503C15.697 21.5169 16.7614 20.9556 17.6217 20.3066C18.4842 19.6509 19.182 18.9039 19.7703 18.1274C19.9327 17.9129 20.0186 17.7928 20.1361 17.6251L20.4609 17.144C20.6867 16.8463 20.8922 16.5075 21.1156 16.2126C21.5536 15.595 21.9855 14.9782 22.4873 14.4099C22.74 14.1216 23.0062 13.8459 23.3206 13.581C23.4775 13.4516 23.647 13.325 23.8346 13.211C24.0251 13.088 24.2263 12.9918 24.474 12.9174Z" fill="url(#paint0_linear_5720_3400)"/>
<path fill-rule="evenodd" clip-rule="evenodd" d="M24.474 12.9238C24.1006 11.9816 23.4066 11.1886 22.475 10.6034C21.549 10.0246 20.2629 9.72925 18.9885 9.98104C18.3589 10.1028 17.749 10.3372 17.2137 10.6494C16.6809 10.9604 16.2034 11.3346 15.79 11.7363C15.5837 11.9377 15.3964 12.1478 15.2103 12.3592L14.7279 12.9741L13.983 13.9639C13.0334 15.2375 12.0107 16.73 10.3325 17.1723C8.68495 17.6065 7.97038 17.222 6.96484 17.0631C7.1487 17.5378 7.37645 17.9988 7.68521 18.4043C7.98821 18.8181 8.3461 19.2067 8.79106 19.5398C9.01592 19.6998 9.25333 19.8577 9.517 19.9916C9.77947 20.1211 10.0625 20.2349 10.3646 20.3207C10.9656 20.4854 11.6422 20.5431 12.2973 20.4545C12.9527 20.367 13.5791 20.1593 14.1267 19.8835C14.6783 19.6102 15.1588 19.2775 15.5879 18.9262C16.4408 18.218 17.1042 17.4353 17.6646 16.6442C17.9465 16.2487 18.2024 15.8456 18.439 15.4425L18.7175 14.9627C18.8027 14.8224 18.8888 14.6812 18.9763 14.5498C19.3292 14.0216 19.6744 13.5981 20.0936 13.2803C20.5071 12.9542 21.0828 12.7133 21.8521 12.6573C22.6182 12.6007 23.5027 12.7053 24.474 12.9238Z" fill="#FAFAFA"/>
<path fill-rule="evenodd" clip-rule="evenodd" d="M20.3242 20.7493C20.3242 21.4412 20.8854 22.0024 21.5774 22.0024C22.2693 22.0024 22.8299 21.4412 22.8299 20.7493C22.8299 20.0573 22.2693 19.4961 21.5774 19.4961C20.8854 19.4961 20.3242 20.0573 20.3242 20.7493Z" fill="#EC796B"/>
<defs>
<linearGradient id="paint0_linear_5720_3400" x1="24.3804" y1="12.5868" x2="-4.23407" y2="27.4741" gradientUnits="userSpaceOnUse">
<stop stop-color="#EC796B"/>
<stop offset="1" stop-color="#D672EF"/>
</linearGradient>
</defs>
</svg>
