<svg width="32" height="32" viewBox="0 0 32 32" fill="none" xmlns="http://www.w3.org/2000/svg">
<path d="M26.5377 20.0626L22.7679 14.9407C22.3583 14.3842 21.7519 14.0508 21.1061 13.9773C20.9591 13.9602 20.8279 13.8749 20.7543 13.7463C20.6795 13.6176 20.6716 13.4614 20.7307 13.3249C20.9893 12.729 21.005 12.0372 20.7268 11.4046L18.1763 5.57914C17.7983 4.71411 16.9438 4.15625 16 4.15625C15.0562 4.15625 14.2017 4.71543 13.8237 5.57914L11.2733 11.4046C10.9963 12.0372 11.0107 12.729 11.2693 13.3249C11.3284 13.4614 11.3192 13.6176 11.2457 13.7463C11.1709 13.8749 11.0409 13.9602 10.8939 13.9773C10.2481 14.0508 9.64166 14.3842 9.23212 14.9407L5.46226 20.0626C4.90309 20.8226 4.84664 21.8412 5.31788 22.659C5.79042 23.4754 6.70138 23.9362 7.63859 23.8325L13.9589 23.1289C14.6454 23.0528 15.2374 22.6945 15.6233 22.172C15.7112 22.0525 15.8517 21.9817 16 21.9817C16.1483 21.9817 16.2875 22.0525 16.3768 22.172C16.7626 22.6945 17.3547 23.0528 18.0412 23.1289L24.3614 23.8325C25.2987 23.9375 26.2096 23.4767 26.6822 22.659C27.1533 21.8412 27.0969 20.8226 26.5377 20.0626ZM12.9219 12.1357L15.4762 6.30371C15.5682 6.095 15.7742 5.9598 16.0013 5.9598C16.2284 5.9598 16.4344 6.095 16.5264 6.30371L19.0808 12.1357C19.1608 12.3195 19.1438 12.5321 19.0335 12.7001C18.9232 12.8681 18.7369 12.9692 18.5347 12.9692H13.4666C13.2658 12.9692 13.0781 12.8681 12.9678 12.7001C12.8576 12.5321 12.8405 12.3195 12.9206 12.1357H12.9219ZM14.2332 21.0143C14.1426 21.1941 13.9668 21.3149 13.7672 21.3372L7.44039 22.0407C7.21461 22.0656 6.9941 21.9555 6.8799 21.7585C6.76569 21.5616 6.78014 21.3162 6.91534 21.1324L10.6891 16.0053C10.8086 15.8439 11.0002 15.752 11.2011 15.7638C11.4019 15.7743 11.583 15.8858 11.6841 16.0604L11.688 16.067L14.2149 20.4433L14.2188 20.4498C14.3199 20.6245 14.3251 20.8371 14.2345 21.0156L14.2332 21.0143ZM16.5198 19.0348C16.4121 19.2199 16.2153 19.3354 16 19.3354C15.786 19.3354 15.5879 19.2213 15.4802 19.0361L13.5388 15.6745C13.4312 15.4895 13.4312 15.2597 13.5388 15.0747C13.6465 14.8895 13.8434 14.7741 14.0586 14.7741H17.9401C18.154 14.7741 18.3522 14.8869 18.4599 15.0734C18.5675 15.2597 18.5675 15.4882 18.4599 15.6732L16.5198 19.0348ZM25.1214 21.7585C25.0072 21.9555 24.788 22.067 24.561 22.0421L18.2341 21.3385C18.0346 21.3162 17.8587 21.1954 17.7681 21.0156C17.6776 20.8358 17.6828 20.6231 17.7839 20.4498L17.7878 20.4433L20.3146 16.067L20.3185 16.0604C20.4196 15.8858 20.6007 15.7743 20.8016 15.7638C21.0024 15.7533 21.1941 15.8439 21.3135 16.0053L25.0873 21.1324C25.2225 21.3162 25.2356 21.5616 25.1227 21.7585H25.1214Z" fill="#E81899"/>
</svg>
