<svg width="32" height="32" viewBox="0 0 32 32" fill="none" xmlns="http://www.w3.org/2000/svg">
<rect x="6.17969" y="6.17969" width="19.64" height="19.64" rx="0.727407" fill="#191919"/>
<path d="M17.6322 14.1289H14.3755C14.2372 14.1289 14.125 14.2408 14.125 14.3789V17.6284C14.125 17.7665 14.2372 17.8784 14.3755 17.8784H17.6322C17.7705 17.8784 17.8827 17.7665 17.8827 17.6284V14.3789C17.8827 14.2408 17.7705 14.1289 17.6322 14.1289Z" fill="white"/>
<path d="M13.8704 10.3789H10.6138C10.4754 10.3789 10.3633 10.4908 10.3633 10.6289V13.8784C10.3633 14.0165 10.4754 14.1284 10.6138 14.1284H13.8704C14.0088 14.1284 14.121 14.0165 14.121 13.8784V10.6289C14.121 10.4908 14.0088 10.3789 13.8704 10.3789Z" fill="white"/>
<path d="M21.3861 10.3789H18.1294C17.9911 10.3789 17.8789 10.4908 17.8789 10.6289V13.8784C17.8789 14.0165 17.9911 14.1284 18.1294 14.1284H21.3861C21.5244 14.1284 21.6366 14.0165 21.6366 13.8784V10.6289C21.6366 10.4908 21.5244 10.3789 21.3861 10.3789Z" fill="white"/>
<path d="M13.8704 17.875H10.6138C10.4754 17.875 10.3633 17.9869 10.3633 18.125V21.3745C10.3633 21.5126 10.4754 21.6245 10.6138 21.6245H13.8704C14.0088 21.6245 14.121 21.5126 14.121 21.3745V18.125C14.121 17.9869 14.0088 17.875 13.8704 17.875Z" fill="white"/>
<path d="M21.3861 17.875H18.1294C17.9911 17.875 17.8789 17.9869 17.8789 18.125V21.3745C17.8789 21.5126 17.9911 21.6245 18.1294 21.6245H21.3861C21.5244 21.6245 21.6366 21.5126 21.6366 21.3745V18.125C21.6366 17.9869 21.5244 17.875 21.3861 17.875Z" fill="white"/>
</svg>
